<?xml version="1.0" encoding="UTF-8" standalone="no"?>
<!-- Created with Inkscape (http://www.inkscape.org/) -->

<svg
   version="1.1"
   id="svg1"
   width="1024"
   height="1024"
   viewBox="0 0 1024 1024"
   xmlns="http://www.w3.org/2000/svg"
   xmlns:svg="http://www.w3.org/2000/svg">
  <defs
     id="defs1" />
  <g
     id="g1">
    <path
       style="fill:#000000;stroke-width:1.27768"
       d="m 427.79234,1009.8125 -16.21883,-0.4172 -0.39105,-5.3926 -0.39104,-5.39243 -8.50793,-0.3752 -8.50793,-0.3751 -2.03969,-5.09771 c -2.15781,-5.39297 -2.51926,-5.64289 -9.93972,-6.87381 -4.90129,-0.81286 -5.27828,-1.36801 -6.71267,-9.88517 -0.52726,-3.1307 -1.64001,-4.98757 -3.30578,-5.51627 -1.97515,-0.62684 -2.51097,-1.95089 -2.51097,-6.20481 0,-6.31456 -1.6933,-8.47435 -6.64396,-8.47435 h -3.57751 v -8.94379 c 0,-7.96494 -0.26825,-8.94378 -2.45086,-8.94378 -5.76517,0 -6.49292,-1.16103 -6.49292,-10.35817 0,-8.26814 -0.17593,-8.80988 -2.87478,-8.85242 -1.58113,-0.0256 -4.31218,-0.86692 -6.06899,-1.87117 -1.75682,-1.00426 -5.3503,-1.84638 -7.98552,-1.87129 -3.95461,-0.0371 -4.79131,0.40093 -4.79131,2.51013 0,2.78548 -1.37449,3.18654 -4.80864,1.40315 -1.22024,-0.63373 -4.51845,-1.63991 -7.32935,-2.23595 -4.15205,-0.88044 -5.17782,-1.68296 -5.46842,-4.27794 -0.98875,-8.82967 -1.09869,-8.94377 -8.61043,-8.94377 h -7.00292 v -4.86657 c 0,-7.15169 -2.02259,-9.02272 -10.22145,-9.45573 l -7.02726,-0.37104 -0.63884,-7.6661 c -0.56223,-6.74693 -0.98355,-7.71503 -3.51363,-8.07444 -2.08072,-0.29553 -2.87478,-1.26605 -2.87478,-3.51363 0,-3.43556 0.24016,-3.37116 -11.66125,-3.12163 l -8.46704,0.17759 -0.85405,-4.5525 c -0.75009,-3.99839 -1.3136,-4.55251 -4.62922,-4.55251 -3.6784,0 -3.77515,-0.16381 -3.77515,-6.38842 v -6.38841 h -5.03533 c -2.76942,0 -5.42982,-0.63833 -5.912,-1.41849 -0.52664,-0.85221 -2.69257,-1.12384 -5.42476,-0.68049 -5.83834,0.9474 -7.90388,-0.84647 -7.90388,-6.8646 0,-2.71191 -0.69806,-5.05554 -1.5971,-5.362 -0.87841,-0.29944 -6.76714,-0.70051 -13.08607,-0.89126 -6.31893,-0.19076 -11.92476,-0.61616 -12.45741,-0.94535 -0.53264,-0.3292 -0.96844,-3.61188 -0.96844,-7.29485 0,-7.31974 -1.50271,-9.76276 -6.00511,-9.76276 -2.8033,0 -2.93867,-0.43819 -2.93867,-9.51261 v -9.51262 l -6.06899,-0.38942 -6.069,-0.38942 -0.63884,-13.82056 c -0.68266,-14.76874 -0.44623,-14.272 -8.72235,-18.32599 -0.22956,-0.11243 -0.80453,-5.28706 -1.27768,-11.49914 l -0.86027,-11.29467 -5.11073,-0.63884 -5.11073,-0.63885 -0.32403,-10.8603 c -0.37741,-12.64972 -0.80268,-14.27739 -3.46351,-13.25633 -1.08227,0.4153 -3.26011,0.43201 -4.83967,0.0372 -2.78247,-0.69562 -2.85947,-1.13536 -2.47183,-14.11492 l 0.40009,-13.39692 -5.51082,-0.39684 -5.51084,-0.39682 -0.36736,-11.81857 -0.36737,-11.81856 h -4.31944 c -8.07112,0 -8.3615,-0.43957 -8.3615,-12.65799 0,-12.08655 -0.95574,-14.17334 -6.49132,-14.17334 h -3.42489 l -0.90254,-13.24145 -0.902554,-13.24143 h -4.83974 c -7.288377,0 -7.99206,-0.87968 -7.007478,-8.76007 0.473356,-3.78864 0.481776,-8.90802 0.01866,-11.37641 -0.794233,-4.23366 -1.128245,-4.48796 -5.894781,-4.48796 h -5.052839 l -0.151163,-9.90204 c -0.08318,-5.44612 -0.517116,-11.62691 -0.964394,-13.73509 -0.730248,-3.44195 -1.366648,-3.87313 -6.237239,-4.22594 l -5.424032,-0.39288 -0.09468,-7.91205 c -0.05213,-4.35162 -0.483309,-10.43065 -0.958263,-13.50893 -0.80448,-5.214 -1.152393,-5.61938 -5.085918,-5.92593 -2.322291,-0.18099 -4.58186,-0.68857 -5.021242,-1.12795 -0.439395,-0.4394 -1.054995,-5.67838 -1.368016,-11.64221 L 50.80325,502.2305 h -4.872213 c -4.775224,0 -4.885552,-0.10809 -5.541679,-5.43015 -0.368191,-2.98658 -1.122113,-8.87989 -1.675387,-13.09625 l -1.005946,-7.6661 -5.749572,-0.63884 -5.749573,-0.63884 v -12.77683 -12.77682 l -5.298665,-0.38646 c -6.006093,-0.43806 -6.79243,-1.82942 -6.821868,-12.07094 l -0.01751,-6.069 H 8.4949447 2.9190357 l -0.812504,-5.9279 c -1.0298384,-7.51348 -1.0318188,-31.54485 -0.00255,-37.76693 0.7398937,-4.47515 1.0606559,-4.74589 6.054938,-5.11072 l 5.2736493,-0.38523 0.391801,-7.63543 c 0.41821,-8.15005 1.436242,-9.56287 6.91303,-9.59373 l 3.471783,-0.0196 0.361265,-14.37393 0.361265,-14.37393 9.902041,0.40512 9.902041,0.4051 v -6.85739 c 0,-3.77158 -0.593803,-7.45122 -1.319565,-8.17698 -0.725762,-0.72577 -0.924378,-2.34942 -0.441375,-3.60812 0.743189,-1.93672 1.928176,-2.18018 7.707991,-1.58364 l 6.829777,0.70488 v -12.04563 c 0,-11.02268 0.208147,-12.04568 2.450877,-12.04568 5.207898,0 6.492902,-1.39044 6.492902,-7.02573 v -5.47465 l 6.068993,-1.10644 6.068993,-1.10644 0.362657,-13.72513 0.362645,-13.72514 h 14.545614 c 18.077026,0 18.892576,0.26967 17.836736,5.89781 l -0.81113,4.32366 h 15.57089 15.57089 l -0.33713,5.48222 c -0.18541,3.01525 0.0926,6.17752 0.61774,7.02726 0.68884,1.11458 7.28825,1.54503 23.68711,1.54503 12.97085,0 24.43061,0.59206 26.6874,1.37878 3.46122,1.20658 4.00364,2.04435 4.34313,6.70784 0.34965,4.80304 0.74827,5.37025 4.03841,5.74654 l 3.65046,0.41749 -0.78877,-7.44474 c -0.43381,-4.09462 -0.90039,-9.60085 -1.03681,-12.23606 l -0.24806,-4.79132 h -6.68314 -6.68314 l 0.74262,-11.46262 c 0.81745,-12.61731 -0.18619,-15.36872 -5.60604,-15.36872 -3.07109,0 -3.10244,-0.1215 -2.71835,-10.54087 l 0.38857,-10.54089 -4.15247,-0.40038 c -3.68274,-0.35507 -4.15247,-0.83812 -4.15247,-4.27035 0,-4.89854 -4.28464,-10.46172 -8.72374,-11.32689 -2.74007,-0.53404 -3.34334,-1.2909 -3.05519,-3.83305 0.87332,-7.70478 1.60866,-8.99131 5.59488,-9.78856 2.38139,-0.47628 4.22127,-1.75755 4.59922,-3.20284 0.56558,-2.16275 1.7562,-2.37149 11.64829,-2.04218 l 11.0183,0.36682 -0.0718,5.93334 -0.0718,5.93334 7.73789,0.84362 c 20.34758,2.21838 19.87588,2.10775 19.87588,4.66172 0,2.13882 0.99065,2.43206 8.21607,2.43206 7.54761,0 8.24929,0.23389 8.62436,2.87479 0.39306,2.76751 1.04355,2.90612 17.43198,3.71449 9.36302,0.46183 17.3608,1.17682 17.77285,1.58886 0.41203,0.41204 0.0554,3.06453 -0.7924,5.89441 -0.84785,2.82989 -1.19352,5.70838 -0.76814,6.39665 0.42537,0.68828 4.76417,1.2514 9.64177,1.2514 h 8.86838 v 4.4719 c 0,4.36542 0.12163,4.47189 5.11072,4.47189 3.40716,0 5.96253,0.85179 7.66611,2.55536 1.40544,1.40545 3.9365,2.55536 5.62459,2.55536 2.2615,0 3.42084,1.00871 4.40541,3.83306 1.13993,3.26998 1.99024,3.83304 5.78847,3.83304 5.15383,0 6.04423,-1.64533 6.01586,-11.11654 -0.0202,-6.75446 0.93282,-18.66454 1.83236,-22.89845 0.3825,-1.80034 1.89066,-2.97466 4.48733,-3.49399 3.69007,-0.73801 3.86356,-1.03619 3.06859,-5.27377 -0.54722,-2.91692 -0.34484,-4.54749 0.57726,-4.65121 0.78093,-0.0879 2.13857,-0.2324 3.01698,-0.32121 1.18369,-0.11971 1.47902,-3.09628 1.14093,-11.49892 -0.50228,-12.48344 0.23807,-13.93686 6.465,-12.69148 l 3.57379,0.71476 v -12.83299 c 0,-14.06638 2.00667,-19.97076 7.23305,-21.2825 3.87806,-0.97333 4.64723,-5.81007 3.56917,-22.44367 l -0.90951,-14.03281 3.03916,-0.14143 c 1.67155,-0.0778 4.21443,-0.0521 5.65085,0.057 2.4382,0.18521 2.7129,-0.91859 4.13563,-16.617696 0.83818,-9.248852 1.19455,-17.349092 0.79192,-18.000544 -0.40262,-0.651452 -0.33235,-5.98266 0.15616,-11.847135 0.80342,-9.644932 1.18552,-10.798144 4.0032,-12.081959 1.71325,-0.780613 4.20393,-1.419289 5.53484,-1.419289 3.34402,0 4.45873,-2.228355 4.47405,-8.943779 l 0.0131,-5.749573 8.58881,-0.376993 8.58881,-0.37698 -0.78723,10.20852 c -0.86797,11.255593 -1.17849,10.821819 8.52443,11.908373 3.02062,0.338254 3.17048,0.722236 2.75742,7.065522 l -0.43679,6.707835 h 6.50579 6.50577 v 5.027554 c 0,6.982037 1.9058,11.309727 5.19809,11.803858 1.96528,0.294966 3.41091,2.102888 4.93105,6.166877 2.05278,5.488018 2.36535,5.736782 6.87104,5.468354 4.47615,-0.266665 4.72042,-0.0787 4.72042,3.633244 0,2.803547 0.70554,4.098961 2.48605,4.564581 1.78533,0.46687 2.59561,1.9637 2.87479,5.31053 0.37566,4.5036 0.58222,4.68193 6.13831,5.29927 l 5.74957,0.63884 0.3633,13.02174 0.3633,13.02173 4.74742,0.39393 4.74744,0.39393 0.90049,10.22146 c 0.49526,5.62181 1.04214,18.70208 1.21531,29.06729 l 0.31484,18.84583 h 5.49252 5.49251 v 19.80408 c 0,18.67083 0.14025,19.80407 2.45088,19.80407 4.7661,0 6.49258,-1.47627 6.51035,-5.56685 0.0351,-8.0536 1.08772,-9.5995 6.82187,-10.01772 l 5.29867,-0.38647 0.38619,-6.70783 c 0.34523,-5.99621 0.69207,-6.70784 3.26942,-6.70784 4.38211,0 7.01962,-2.71305 7.45261,-7.66609 0.32049,-3.66627 0.96637,-4.55264 3.58513,-4.92011 3.94975,-0.55426 5.06605,-2.20691 5.09117,-7.5373 0.0191,-4.06676 0.13825,-4.15246 5.76913,-4.15246 h 5.74958 v -7.02726 -7.02725 h 5.61288 c 5.77786,0 7.16394,-1.25333 7.16394,-6.47782 0,-1.85738 1.22458,-2.63158 5.15715,-3.26042 5.69259,-0.91029 7.61968,-3.27323 7.61968,-9.34302 0,-3.47608 0.41974,-3.91703 3.72856,-3.91703 5.92099,0 7.77058,-1.23067 7.77058,-5.1703 0,-3.25994 0.47566,-3.65859 4.79132,-4.01577 4.33037,-0.35841 4.82868,-0.78065 5.17976,-4.38909 0.36913,-3.79414 0.7818,-4.07353 8.30492,-5.62281 12.91354,-2.65935 14.94378,-4.13479 14.94378,-10.86039 0,-6.19204 -0.76022,-5.69818 9.58263,-6.22536 1.89262,-0.0965 2.65616,-1.16677 2.94403,-4.12681 0.36797,-3.78229 0.74476,-4.04345 7.02725,-4.87095 14.38505,-1.894714 16.2281,-2.312804 16.4158,-3.724096 0.10733,-0.804595 0.25081,-2.325332 0.31942,-3.379419 0.092,-1.42058 2.04058,-2.01612 7.52798,-2.301388 6.5646,-0.34127 7.54152,-0.74871 8.62436,-3.596805 0.67168,-1.766563 1.22121,-4.899376 1.22121,-6.961812 0,-2.866238 0.58722,-3.749871 2.49186,-3.749871 1.37058,0 3.03935,-0.978361 3.70861,-2.174118 0.66912,-1.195771 3.70783,-2.776903 6.75254,-3.513627 l 5.53595,-1.33951 -0.39839,-5.430152 c -0.38585,-5.25875 -0.27866,-5.430152 3.39558,-5.430152 4.20881,0 5.34519,-1.756137 5.34519,-8.260423 0,-4.765667 1.89889,-5.746825 11.17971,-5.776647 l 5.43016,-0.0175 V 36.515117 28.21018 h 7.66609 7.6661 v 6.283911 c 0,7.927856 0.92197,10.325964 3.96976,10.325964 2.3342,0 2.41865,1.850724 2.41865,53.023831 v 53.023834 h -5.74957 -5.74957 v 18.52641 18.52639 h -5.67419 c -3.12073,0 -6.029,0.57406 -6.46252,1.27569 -0.43364,0.70163 -1.12512,5.2907 -1.53653,10.19795 -0.74758,8.91724 -0.75039,8.92274 -5.03651,9.72682 -4.28151,0.80322 -4.28854,0.8167 -4.28854,8.22337 v 7.41885 l 15.01277,-0.57999 c 8.25702,-0.31898 18.60626,-0.89241 22.9983,-1.27431 l 7.98551,-0.69434 v -5.64786 -5.64788 h 14.80566 14.80566 l -0.82653,-4.89179 c -0.91406,-5.41036 0.0485,-6.74107 6.35149,-8.78457 3.15242,-1.02197 3.84659,-1.95457 3.90906,-5.2518 0.0946,-5.00899 0.26078,-5.16139 6.04115,-5.55066 4.58317,-0.30866 4.74314,-0.48297 4.74314,-5.16903 v -4.84959 h 6.40911 c 6.0092,0 6.52155,-0.25908 8.21167,-4.15247 0.99135,-2.28385 2.0945,-5.10792 2.45136,-6.2757 0.50073,-1.63893 2.58372,-2.22181 9.1321,-2.55536 l 8.48344,-0.43214 -0.41448,17.72053 c -0.3888,16.61445 -0.5816,17.78407 -3.0897,18.73825 -2.37814,0.90479 -2.76733,2.41178 -3.50698,13.58269 -1.04309,15.75315 -1.08297,32.81799 -0.083,35.42433 0.66695,1.73811 1.28459,1.76837 4.93787,0.24195 2.53504,-1.05922 6.49803,-1.48283 10.08756,-1.07823 6.47171,0.72945 9.76596,-0.93379 9.76596,-4.93079 0,-2.056 1.00451,-2.39892 7.02726,-2.39892 6.84468,0 7.02725,-0.0929 7.02725,-3.57751 0,-1.96764 -0.63986,-4.21737 -1.42193,-4.99942 -3.5577,-3.55769 0.34868,-4.27569 18.57674,-3.41443 l 18.23457,0.86159 0.82028,-5.12949 c 0.45115,-2.82121 1.68782,-5.84951 2.74817,-6.72954 1.11222,-0.92309 1.92802,-3.6962 1.92802,-6.55434 v -4.9543 h 7.64169 c 7.29391,0 7.6776,0.15997 8.42901,3.51362 0.43288,1.9325 1.33121,5.52599 1.99625,7.98553 0.66503,2.45954 1.55711,10.94015 1.98232,18.84581 l 0.77338,14.37393 h -5.76094 -5.76094 l -0.92645,19.46377 c -0.50954,10.70507 -1.19873,19.90439 -1.53157,20.44292 -0.33282,0.53854 -1.8649,0.97916 -3.40451,0.97916 -1.98551,0 -2.86405,0.83589 -3.02171,2.87479 -0.12266,1.58113 -0.69724,8.62436 -1.27768,15.65162 l -1.05537,12.77682 -4.79131,0.39656 c -4.65882,0.38556 -4.79132,0.53581 -4.79132,5.43014 0,4.18181 -0.43249,5.0336 -2.55536,5.0336 -2.20873,0 -2.55536,0.85179 -2.55536,6.27941 v 6.2794 l 9.90204,0.93855 c 9.88517,0.93695 44.30173,-1.23248 51.27366,-3.23201 1.95345,-0.56022 7.75438,-1.44066 12.89118,-1.95652 l 9.33961,-0.93793 -0.81299,21.98303 c -0.4472,12.09069 -1.1259,22.48949 -1.50856,23.10845 -2.09093,3.38331 15.21554,2.8002 22.00565,-0.74145 3.8213,-1.99316 29.23864,-2.72545 31.70484,-0.91348 0.7955,0.58445 1.3135,14.56026 1.3724,37.03324 l 0.095,36.09454 h -5.4493 c -2.9972,0 -5.7731,0.52385 -6.1688,1.16411 -0.3956,0.64026 -1.0902,7.22339 -1.5433,14.62919 l -0.8238,13.46507 -5.2399,0.38359 -5.24012,0.38358 -0.36912,11.17973 -0.36913,11.17973 h -5.19364 -5.19366 l 0.48309,13.41567 0.48322,13.41566 h -4.66596 c -6.19153,0 -7.63365,2.09929 -8.05925,11.73151 -0.19625,4.43991 -0.44591,10.19396 -0.55477,12.78676 -0.18756,4.46883 -0.44335,4.73481 -4.91524,5.11073 -4.18339,0.35166 -4.84562,0.89471 -5.85052,4.79762 -0.62325,2.42059 -0.94394,7.73999 -0.71281,11.8209 0.3879,6.84597 0.21043,7.41963 -2.29472,7.41748 -1.49323,-10e-4 -4.37478,0.32965 -6.40349,0.73537 l -3.68841,0.73768 0.0154,11.71973 0.0153,11.71971 -4.79131,0.39656 -4.79131,0.39653 v 13.9623 13.96228 l -5.11073,0.81723 -5.11073,0.81725 v 11.36747 c 0,11.02659 -0.0984,11.40483 -3.27739,12.61352 -1.80255,0.68533 -4.62316,1.24606 -6.2678,1.24606 -2.98607,0 -2.98939,0.0193 -2.2758,12.96976 0.64025,11.61848 0.46903,13.14934 -1.64247,14.69335 -1.29646,0.94798 -3.6847,1.72359 -5.30723,1.72359 -2.88488,0 -2.94992,0.28205 -2.94992,12.77683 v 12.77683 h -5.74957 -5.74957 v 14.55356 14.55357 l -4.79132,0.77693 c -2.63521,0.42731 -5.51,0.87352 -6.38841,0.99157 -1.14148,0.1534 -1.5971,3.44617 -1.5971,11.54095 0,7.94683 -0.47657,11.4731 -1.5971,11.81831 -0.87841,0.27061 -3.17824,0.83848 -5.11074,1.26194 l -3.51362,0.76989 v 14.669 14.66902 h -5.11073 -5.11074 l -0.0127,6.069 c 0,3.33794 -0.37564,9.94994 -0.8236,14.69335 -0.81375,8.61543 -0.8186,8.62436 -4.78223,8.64392 -6.55503,0.0319 -7.03365,0.97973 -7.43177,14.71226 l -0.36899,12.72572 -5.97062,1.28407 c -3.2839,0.70617 -6.32708,1.64399 -6.76264,2.08402 -0.43557,0.44004 -0.91113,8.48944 -1.05665,17.88757 l -0.26461,17.08746 -4.74889,0.39403 -4.74876,0.39404 -0.36197,13.55685 c -0.35762,13.39779 -0.39928,13.56133 -3.55604,13.93159 -4.7885,0.5618 -58.22311,2.92322 -67.39777,2.97855 l -7.98552,0.0485 -0.0191,4.15246 c -0.0358,7.69613 1.22389,7.46998 -38.63942,6.93513 -20.0986,-0.26958 -37.14416,-0.11882 -37.87909,0.33552 -0.73479,0.45422 -1.55519,2.23825 -1.82299,3.96453 l -0.48692,3.13875 -32.76516,-0.11754 -32.76502,-0.11755 v 5.41163 c 0,3.756 -0.61828,5.64889 -2.02105,6.18717 -3.99518,1.53309 -51.55045,0.85414 -54.15623,-0.77325 -3.24947,-2.02934 -3.64259,-1.4802 -4.82733,6.74246 l -1.00053,6.94433 -11.48039,0.0332 c -6.31421,0.0179 -12.77404,-0.50557 -14.35517,-1.16346 -2.00486,-0.83407 -3.93804,-0.6534 -6.38842,0.59681 -1.9325,0.98599 -5.81346,1.79694 -8.62435,1.80218 -4.72865,0.0127 -5.1429,0.29603 -5.54101,3.8425 -0.23664,2.10817 -1.24281,4.29288 -2.23595,4.85481 -0.99311,0.56192 -1.80567,1.82951 -1.80567,2.81691 0,1.58867 -2.9289,2.50668 -11.49914,3.60421 -1.31355,0.16814 -2.11751,2.25175 -2.55537,6.62277 l -0.63884,6.3773 -15.33219,0.06 c -8.43271,0.033 -22.63066,-0.1278 -31.55102,-0.3571 z m 30.75083,-29.46421 c 0.60823,-0.98624 6.03617,-2.22201 13.46695,-3.06605 6.95455,-0.78999 13.20943,-2.17538 14.17331,-3.13927 1.15068,-1.15068 5.05344,-1.73151 11.71858,-1.74416 12.47353,-0.023 15.85036,-1.61487 17.60029,-8.29433 0.73523,-2.80631 2.05548,-5.15993 2.93388,-5.2302 0.87841,-0.0703 2.11056,-0.21401 2.7381,-0.31942 2.32281,-0.39021 2.58372,-4.24382 0.61968,-9.15243 -1.38619,-3.46443 -1.77433,-6.96529 -1.23526,-11.14177 1.04868,-8.12441 2.90945,-60.428 2.2508,-63.26624 -0.36525,-1.57397 -1.76946,-2.23594 -4.74267,-2.23594 -6.65714,0 -7.46226,-4.31819 -6.34768,-34.04424 0.51126,-13.63554 0.51162,-32.30626 7.9e-4,-41.49041 l -0.92879,-16.6985 -4.93542,0.47067 c -2.82677,0.26957 -5.16529,-0.12836 -5.47343,-0.93136 -0.29592,-0.77112 -0.58892,-16.27096 -0.65113,-34.44409 -0.13515,-39.47855 -0.39024,-41.51623 -5.19738,-41.51623 h -3.49449 l -0.83521,-15.5328 c -0.45935,-8.54303 -0.83519,-22.62948 -0.83519,-31.30322 v -15.77044 h -3.83305 -3.83304 v -12.89644 c 0,-11.54983 0.25094,-12.96207 2.40327,-13.52491 2.12462,-0.55561 2.40325,-1.94203 2.40325,-11.95801 0,-9.46785 -0.3949,-11.68691 -2.40325,-13.50445 -1.3218,-1.1962 -2.40327,-3.16532 -2.40327,-4.3758 0,-1.21049 -0.86244,-2.91666 -1.91652,-3.79148 -1.0541,-0.87481 -1.91654,-2.92899 -1.91654,-4.56484 0,-1.63586 -1.00617,-3.53914 -2.23594,-4.22953 -3.24999,-1.82453 -0.44115,-2.57761 11.17973,-2.99742 9.52572,-0.34414 9.58512,-0.36813 10.00443,-4.04143 l 0.42182,-3.69525 11.89194,0.70948 c 6.54056,0.39022 16.61621,0.38569 22.39034,-0.0102 10.09387,-0.69184 10.54663,-0.85789 11.74974,-4.3091 1.20738,-3.46351 1.59513,-3.60254 11.04642,-3.96075 9.02097,-0.34191 9.82707,-0.59604 10.19941,-3.21552 0.39721,-2.79446 0.77764,-2.85041 21.72061,-3.19421 21.0121,-0.34493 21.3222,-0.39095 21.72454,-3.22471 0.39365,-2.77143 0.88747,-2.87479 13.73509,-2.87479 13.15643,0 13.32687,-0.0386 13.32687,-3.01829 0,-2.6896 0.73045,-3.10383 6.70783,-3.80368 3.68931,-0.43196 25.9689,-1.16303 49.51021,-1.62456 23.5413,-0.46155 43.79769,-1.35163 45.01417,-1.97793 1.21648,-0.62631 17.39156,-1.09111 35.94466,-1.03289 34.87781,0.10937 43.69701,-0.87831 53.60953,-6.00421 2.04544,-1.0578 7.96431,-2.24432 13.15285,-2.63673 8.79799,-0.6654 9.43377,-0.91236 9.43377,-3.66488 0,-2.75461 0.57508,-2.97661 8.62435,-3.32922 6.53394,-0.28622 8.62436,-0.82961 8.62436,-2.24193 0,-2.66591 6.63411,-3.78139 23.88782,-4.01656 l 14.94403,-0.20369 0.38816,-3.34622 c 0.35928,-3.09745 0.90766,-3.37566 7.3767,-3.74214 8.10178,-0.459 10.69242,-2.09578 9.89757,-6.25341 -0.44387,-2.32227 0.092,-3.10712 2.45264,-3.59133 1.66136,-0.3408 4.47738,-0.92291 6.2577,-1.29358 2.61376,-0.54416 3.16739,-1.3292 2.87479,-4.07688 -0.31712,-2.97874 0.2351,-3.54764 4.42909,-4.56372 4.1687,-1.00992 4.7913,-1.6424 4.7913,-4.8669 0,-3.46348 0.33003,-3.70612 5.04098,-3.70612 4.23986,0 5.30839,-0.55846 6.72291,-3.51362 1.02828,-2.14827 3.37641,-4.06327 6.04293,-4.92805 2.40537,-0.78016 4.80626,-2.61768 5.35375,-4.09766 0.54582,-1.47578 3.18475,-4.06708 5.86404,-5.75848 2.67931,-1.69138 5.65222,-4.01589 6.60627,-5.16555 0.95417,-1.14967 3.3189,-2.09029 5.25497,-2.09029 1.93608,0 4.23591,-0.86244 5.11074,-1.91653 0.87483,-1.05408 2.38262,-1.91652 3.35072,-1.91652 2.42275,0 2.23645,-5.68008 -0.25414,-7.74712 -1.38794,-1.15185 -1.78952,-2.88895 -1.29147,-5.58662 0.83637,-4.53125 -3.6534,-15.24866 -8.01248,-19.12578 -1.50498,-1.33868 -2.73641,-2.9474 -2.73641,-3.5749 0,-0.62753 -1.58113,-2.5103 -3.51363,-4.18397 -3.1445,-2.72332 -4.34936,-2.96621 -11.46938,-2.3121 -9.08368,0.83455 -9.8177,0.12726 -9.89079,-9.531 -0.0409,-5.35553 -0.0997,-5.42615 -4.57679,-5.43016 -5.84553,-0.005 -7.56068,-1.82535 -6.70273,-7.11272 0.37961,-2.33848 0.32147,-5.72039 -0.12904,-7.51534 l -0.81912,-3.26358 h -16.27462 c -8.95093,0 -18.20965,0.55501 -20.5749,1.23335 -2.36524,0.67834 -8.68595,1.56075 -14.04608,1.96089 -13.55442,1.01189 -14.21754,1.30996 -14.21754,6.39132 0,2.36642 -0.58965,5.85364 -1.31039,7.74932 -1.28229,3.37253 -1.49783,3.43331 -10.01473,2.82394 -11.57236,-0.828 -13.29174,0.43266 -12.73289,9.33617 l 0.42088,6.70549 -14.37393,-0.30998 -14.37393,-0.30998 v 4.56919 4.5692 h -14.69336 -14.69335 v 4.43017 4.43018 l -16.60987,-0.79448 -16.60987,-0.79451 v 5.94694 c 0,3.27081 -0.14375,5.99984 -0.31943,6.06452 -0.17568,0.0646 -11.53109,0.60325 -25.23423,1.19683 -13.70315,0.59358 -32.28692,1.49245 -41.29739,1.99746 -10.91499,0.61179 -21.96043,0.34951 -33.09556,-0.78581 -13.82377,-1.40946 -22.03556,-1.41899 -47.50157,-0.055 -16.93376,0.9069 -33.23215,1.61115 -36.21873,1.56501 l -5.43016,-0.084 v 5.50189 5.50191 l -13.72941,0.88762 c -7.55118,0.4882 -16.1436,1.49552 -19.09427,2.23851 -4.73601,1.19255 -5.41062,1.82194 -5.75525,5.36956 l -0.39039,4.01865 -11.49914,0.63884 -11.49915,0.63884 -0.3933,4.73683 -0.39329,4.73683 -9.18932,0.37391 -9.18934,0.37389 0.41935,4.79131 0.41934,4.79132 h -7.78919 -7.7892 l 0.3426,5.43015 0.34259,5.43014 -11.17971,0.36917 -11.17973,0.36917 v 5.06098 c 0,4.47556 -0.351,5.06099 -3.03449,5.06099 -1.66898,0 -4.83124,0.35934 -7.02726,0.79855 -3.62979,0.72597 -3.99276,1.23912 -3.99276,5.64507 0,7.87441 -0.78099,8.7055 -9.06122,9.64229 l -7.54865,0.85403 v 4.30687 c 0,2.88081 -0.60436,4.30685 -1.82527,4.30685 -1.00389,0 -2.61759,0.79233 -3.58601,1.76074 -0.9684,0.96841 -3.51597,2.14627 -5.66125,2.61745 -7.53731,1.65547 -14.41774,12.94881 -14.46253,23.73835 -0.0196,4.71417 2.04647,6.31813 10.52229,8.169 9.22002,2.01335 10.74565,2.6226 13.5899,5.42702 1.98427,1.9565 4.5498,3.00633 7.34667,3.00633 3.44587,0 4.29765,0.50647 4.29765,2.55536 0,2.12948 0.8518,2.55537 5.11074,2.55537 3.69108,0 5.11073,0.53237 5.11073,1.91653 0,1.19249 1.2067,1.91652 3.1942,1.91652 3.10296,0 3.19422,0.25554 3.19422,8.94378 0,7.09824 -0.39548,8.94378 -1.91654,8.94378 -1.06473,0 -1.91652,1.13572 -1.91652,2.55536 0,2.06863 -0.85178,2.55537 -4.47188,2.55537 -4.24905,0 -4.47189,0.22027 -4.47189,4.4206 0,4.11686 -0.37311,4.52226 -5.43016,5.89998 -2.98658,0.81368 -6.86754,1.88721 -8.62435,2.38564 -2.40969,0.68366 -3.29254,1.90195 -3.59457,4.96032 -0.38257,3.87363 -0.64873,4.05407 -5.98013,4.05407 -4.81366,0 -5.63582,0.39471 -5.98805,2.87478 l -0.40828,2.87479 -39.92759,0.33762 -39.92759,0.33762 v -5.80787 c 0,-3.98391 -0.60187,-6.03884 -1.91652,-6.54331 -1.09246,-0.41922 -1.91652,-2.3248 -1.91652,-4.43179 0,-3.44369 -0.34,-3.69635 -4.97404,-3.69635 -5.09254,0 -6.52511,-1.41564 -6.52511,-6.44795 0,-1.32326 -1.14992,-3.02134 -2.55536,-3.77352 -4.04513,-2.16488 -3.34944,-10.55062 1.63302,-19.68427 3.72571,-6.82982 5.08701,-8.06892 14.33801,-13.05104 l 10.22145,-5.50476 0.76006,-6.75304 c 0.41803,-3.71417 0.52783,-7.18425 0.24402,-7.7113 -0.28382,-0.52705 -2.49445,-0.95826 -4.91252,-0.95826 h -4.39649 v -8.19837 c 0,-7.40057 0.33015,-8.43888 3.39272,-10.66979 2.80247,-2.04145 3.49642,-3.72223 3.98892,-9.66106 0.57157,-6.89244 0.40491,-7.38097 -4.03154,-11.81744 -2.54527,-2.54528 -4.62778,-5.36231 -4.62778,-6.26008 0,-0.89777 -0.86244,-2.34807 -1.91652,-3.22289 -1.0541,-0.87481 -1.92438,-2.81383 -1.93397,-4.3089 -0.0564,-8.77802 -2.21126,-10.1199 -17.47723,-10.88322 -2.35529,-0.1178 -2.86388,-1.00466 -3.19421,-5.57023 -0.3827,-5.28948 -0.52474,-5.44669 -5.48361,-6.06898 -5.08479,-0.63811 -5.09029,-0.64498 -4.70639,-5.89212 0.3833,-5.2388 0.37005,-5.25556 -4.8113,-6.08409 -5.0521,-0.80786 -5.19567,-0.96938 -5.19567,-5.8455 0,-4.72367 -0.24097,-5.03792 -4.15247,-5.41505 -3.89713,-0.37576 -4.17662,-0.73405 -4.54517,-5.82716 -0.37926,-5.24058 -0.56556,-5.45439 -5.43016,-6.23228 -4.45391,-0.71221 -5.03744,-1.21414 -5.03744,-4.33308 0,-3.0199 -0.64355,-3.64828 -4.47189,-4.36647 -4.30527,-0.80768 -4.47189,-1.04821 -4.47189,-6.45522 0,-3.0971 -0.71637,-6.07389 -1.59711,-6.63649 -0.8784,-0.56113 -4.74012,-1.31375 -8.58162,-1.67251 -6.83813,-0.63861 -7.00796,-0.75195 -8.10399,-5.40792 -0.98711,-4.19328 -1.67206,-4.84719 -5.79231,-5.52971 -7.40873,-1.22726 -7.86704,-1.55472 -7.86704,-5.62125 0,-4.04652 -1.13057,-4.69113 -9.58262,-5.46365 -3.1259,-0.28573 -3.90762,-0.99858 -4.23734,-3.86399 -0.32759,-2.84714 -1.05467,-3.52133 -3.83304,-3.55426 -4.41103,-0.0523 -7.26207,-2.28854 -8.31594,-6.52277 -0.64445,-2.58922 -1.87239,-3.56314 -5.30421,-4.20696 -2.45611,-0.46076 -4.33007,-1.48014 -4.16437,-2.26529 0.16569,-0.78513 -3.72346,-3.54965 -8.64253,-6.14339 -6.14414,-3.23969 -9.06873,-5.55364 -9.34295,-7.39221 -0.32061,-2.14969 -1.45195,-2.75285 -5.74956,-3.0653 -5.31058,-0.38609 -5.35335,-0.42942 -5.74329,-5.81914 -0.3131,-4.32733 -0.88162,-5.43015 -2.79939,-5.43015 -1.32356,0 -2.76184,-0.57496 -3.19615,-1.27768 -0.43429,-0.70273 -2.73336,-1.27768 -5.10901,-1.27768 -4.06897,0 -4.34234,-0.27775 -4.7159,-4.79132 -0.38593,-4.66295 -0.60999,-4.85976 -8.36346,-7.34667 -4.38182,-1.40546 -7.9753,-3.22353 -7.98552,-4.04017 -0.0102,-0.81663 -2.29219,-1.86891 -5.07103,-2.33839 l -5.05241,-0.85362 -0.37774,-7.88305 -0.37773,-7.88306 -5.24069,-0.38362 c -4.8615,-0.35588 -5.19552,-0.61995 -4.61638,-3.64954 0.88028,-4.60487 -1.31651,-5.50736 -13.460644,-5.5299 l -10.540882,-0.0196 v 10.22147 c 0,6.56636 -0.501299,10.22146 -1.401912,10.22146 -0.771043,0 -5.258393,3.72313 -9.971879,8.27361 -7.018912,6.77619 -8.866148,9.42923 -10.206398,14.65858 -0.900026,3.51172 -1.253011,8.13059 -0.784395,10.26415 0.675179,3.07406 0.167466,4.69273 -2.446213,7.7989 -1.814015,2.15585 -3.298223,5.313 -3.298223,7.01591 0,2.88078 -0.466609,3.09753 -6.707835,3.11573 -8.982122,0.0262 -10.153208,0.96382 -9.665503,7.73872 l 0.402304,5.58851 11.818565,1.8403 11.818565,1.84031 v 4.90196 c 0,2.69609 0.431218,4.83388 0.958262,4.75067 0.527045,-0.0831 4.228121,-0.0831 8.22461,0 l 7.266349,0.1513 -0.725686,4.47189 c -0.699902,4.31304 -0.583582,4.47189 3.274534,4.47189 3.560034,0 4.000221,0.40674 4.000221,3.69635 0,4.29843 1.751932,5.24743 9.687121,5.24743 5.169615,0 5.645065,0.26903 5.645065,3.19421 0,2.87024 0.513984,3.1942 5.067404,3.1942 2.78705,0 7.09924,0.96893 9.58262,2.15316 3.58915,1.71155 4.51523,2.8908 4.51523,5.74958 0,3.39416 0.31364,3.59641 5.57728,3.59641 6.3756,0 12.31027,3.77916 12.31027,7.83914 0,1.65671 0.77925,2.46368 2.23595,2.31549 7.10672,-0.72289 9.40907,0.10389 10.71413,3.84767 1.41173,4.04967 2.33043,4.50796 11.54085,5.757 3.28048,0.44487 6.61959,1.59817 7.42022,2.56289 0.80065,0.96471 3.72214,2.13693 6.49219,2.60493 2.77006,0.468 5.46801,1.52078 5.99544,2.33953 0.52744,0.81874 3.35962,3.11654 6.29373,5.10621 2.93413,1.98968 5.64713,4.43157 6.0289,5.42645 0.38176,0.99487 1.33946,1.80885 2.12823,1.80885 0.78875,0 3.78507,2.01235 6.65849,4.47189 3.68015,3.15007 6.46953,4.47189 9.43684,4.47189 2.98363,0 4.7732,0.85579 6.13467,2.93366 1.37386,2.09677 4.1014,3.38377 9.56112,4.51146 8.12789,1.67879 10.70471,3.64764 7.28136,5.56344 -5.34152,2.98926 -0.0951,7.43437 8.77471,7.43437 6.79998,0 6.85825,0.0333 7.25542,4.15246 l 0.40036,4.15247 9.52667,0.63884 9.52665,0.63884 0.48938,5.11074 c 0.66178,6.91153 2.14233,8.30493 8.82429,8.30493 5.53948,0 5.67453,0.0957 4.95655,3.51363 -1.16236,5.53333 0.77036,7.10823 9.49805,7.73953 l 7.88835,0.57058 -0.83382,5.56031 -0.83381,5.5603 5.14892,0.82335 5.14891,0.82334 -0.78479,7.50857 -0.78481,7.50856 h 4.14327 4.14327 l -6.37118,6.97108 c -3.50416,3.83411 -7.69166,10.15697 -9.30556,14.05081 -2.06392,4.97959 -3.98303,7.5439 -6.46942,8.64448 -5.28287,2.33843 -6.82724,13.77484 -1.86015,13.77484 1.19189,0 1.91252,3.83096 2.58361,13.73509 0.51187,7.5543 1.153,15.45996 1.42474,17.56814 0.27174,2.10817 0.87037,9.1514 1.33031,15.65162 l 0.83625,11.81856 h 4.96955 4.96954 l -0.66794,4.79131 c -0.36737,2.63522 -0.23041,13.12819 0.30432,23.31771 l 0.97225,18.5264 4.15248,1.82769 c 3.378,1.4868 4.15572,2.55914 4.16991,5.74957 0.0327,7.35898 1.22952,9.5007 5.54311,9.91965 l 4.02207,0.39065 -0.45551,9.2632 -0.45551,9.26319 h 4.16387 4.16385 l -0.83919,14.69335 -0.8392,14.69336 h 3.87031 c 5.85416,0 6.84594,3.85727 6.92932,26.95028 0.0854,23.63409 0.39647,24.37651 9.75152,23.26854 l 6.29145,-0.74513 v 19.23677 c 0,11.72938 0.50021,19.40341 1.28174,19.66392 0.75925,0.25312 1.53803,9.54148 1.9104,22.78543 0.51442,18.29551 0.97042,22.43163 2.50947,22.76306 1.90217,0.40962 3.49958,6.44833 2.91922,11.03548 -0.26286,2.07763 0.86377,2.7267 6.71136,3.86702 l 7.02726,1.37033 -0.43288,8.31375 c -0.39841,7.65153 -0.19489,8.43232 2.55536,9.80212 1.64353,0.81874 4.13815,1.67735 5.54361,1.90822 2.28997,0.37615 2.55536,1.41146 2.55536,9.96784 0,5.25153 0.46515,10.26696 1.03368,11.14536 0.56851,0.87841 3.23251,1.5971 5.91997,1.5971 5.22414,0 6.40629,1.67964 6.44459,9.15677 0.0102,1.87385 0.73613,3.71473 1.61453,4.09063 0.87841,0.37589 12.39949,0.56755 25.60238,0.42585 18.02742,-0.19344 24.25899,-0.66899 25.02417,-1.90962 z m -47.2628,-10.05639 c -1.3602,-0.36311 -2.45184,-2.82329 -3.1942,-7.19846 -0.93409,-5.50514 -1.62157,-6.7169 -4.00259,-7.05511 -2.41911,-0.34357 -2.87479,-1.19681 -2.87479,-5.38287 0,-7.82198 -4.54441,-17.66409 -10.62899,-23.02001 -2.96132,-2.6066 -6.19059,-6.24608 -7.17613,-8.08761 -1.1466,-2.14241 -2.86449,-3.34816 -4.77023,-3.34816 h -2.9783 v -28.02021 -28.0201 l -2.87479,-0.40834 c -2.81066,-0.39915 -2.88272,-0.82028 -3.23092,-18.88199 -0.24703,-12.815 -0.83408,-18.77732 -1.91652,-19.46506 -0.85821,-0.54527 -3.91871,-1.00021 -6.80112,-1.01098 l -5.24072,-0.0196 -0.77099,-26.51192 c -0.54566,-18.76357 -1.39263,-28.7524 -2.89803,-34.17802 -1.16988,-4.21635 -2.18249,-10.62712 -2.25025,-14.24616 -0.12227,-6.53264 -0.15283,-6.58006 -4.23391,-6.58006 -2.2609,0 -4.64386,-0.3295 -5.29544,-0.7322 -0.6516,-0.4027 -1.49599,-4.60992 -1.87642,-9.34935 -0.38044,-4.73944 -1.24131,-8.80036 -1.91304,-9.02428 -5.02123,-1.67374 -5.27991,-2.94308 -5.55505,-27.25841 -0.14781,-13.06208 0.14426,-24.41749 0.64903,-25.23423 0.62955,-1.01864 -0.4673,-1.48498 -3.49283,-1.48498 -4.78773,0 -5.96168,-1.53015 -5.96168,-7.7706 0,-3.21097 -0.48773,-3.73127 -3.51363,-3.74811 -4.84953,-0.0269 -6.01669,-1.18864 -6.39914,-6.36885 -0.18157,-2.45954 -0.65657,-9.21529 -1.05554,-15.01278 l -0.72541,-10.54088 h 3.14648 c 3.53542,0 4.25311,2.06724 5.76648,16.60988 l 0.86424,8.30493 5.43016,-0.11026 c 5.11141,-0.10375 5.43014,0.098 5.43014,3.43822 0,1.95167 0.58842,3.91218 1.30762,4.35665 0.71918,0.44449 17.48468,0.16476 37.25666,-0.6216 32.71347,-1.30106 36.27571,-1.66234 39.57825,-4.01395 2.78012,-1.97964 3.62917,-3.61005 3.62917,-6.96909 0,-3.97445 0.34266,-4.38489 3.66075,-4.38489 4.82508,0 10.39376,-4.46658 10.39376,-8.3367 0,-2.83732 0.53363,-3.06592 7.98551,-3.4209 l 7.98552,-0.38039 v -5.11072 -5.11074 l 10.86031,-0.93354 c 5.97316,-0.51345 11.579,-0.67522 12.45741,-0.35952 1.23571,0.44414 1.5971,10.54199 1.5971,44.62417 v 44.05015 l 6.06899,0.38942 6.069,0.38944 0.0522,32.5809 c 0.0286,17.91951 0.17238,36.96335 0.31942,42.31965 l 0.2673,9.73874 4.95665,0.79261 c 4.60048,0.73564 5.05954,1.20119 6.38842,6.47865 0.90444,3.59187 1.43176,20.30077 1.43176,45.36726 v 39.68125 h 5.74957 5.74956 v 32.58091 c 0,25.93043 -0.34003,32.5809 -1.66588,32.5809 -0.91624,0 -3.61632,2.01235 -6.00021,4.47189 -4.17706,4.30963 -4.67403,4.47189 -13.69792,4.47189 -8.84639,0 -9.43162,0.17887 -10.59489,3.23854 -0.67721,1.78122 -1.09419,3.93731 -0.92663,4.79131 0.20178,1.02854 -2.03686,1.68577 -6.63022,1.94681 -4.28611,0.24353 -8.26548,1.34157 -10.41869,2.87478 -3.09907,2.20669 -5.57885,2.4644 -22.45187,2.33254 -10.43239,-0.0817 -19.89788,-0.39646 -21.03441,-0.69992 z M 672.55885,859.90639 c 0.6161,-0.55835 1.80613,-4.07581 2.64454,-7.81661 1.33647,-5.96319 1.94643,-6.85131 4.94886,-7.20574 3.13339,-0.37002 3.42444,-0.88161 3.42444,-6.0198 0,-5.47024 0.13224,-5.65106 5.11073,-6.99165 4.71312,-1.26913 5.11074,-1.72022 5.11074,-5.79881 0,-4.0326 0.3281,-4.42265 3.72073,-4.42265 3.34064,0 3.80826,-0.51836 4.57781,-5.07311 0.47147,-2.79022 1.95933,-6.4744 3.30652,-8.18706 1.38168,-1.75646 2.44945,-5.11477 2.44945,-7.7037 0,-3.64326 0.49625,-4.58979 2.40638,-4.58979 2.53646,0 3.93437,-3.24154 3.96453,-9.19319 0.0166,-3.19322 0.45434,-3.47194 6.02401,-3.83305 l 6.00652,-0.38943 1.3721,-6.38841 1.3721,-6.38842 5.31222,0.39603 c 6.15461,0.45881 8.03957,-1.71567 8.03957,-9.27459 0,-3.79002 0.71218,-5.00891 4.15247,-7.10647 2.28386,-1.3925 6.30855,-2.53396 8.94377,-2.53658 4.72437,-0.005 4.79131,-0.075 4.79131,-5.03456 0,-4.74071 0.23867,-5.05279 4.15248,-5.43015 4.04935,-0.39043 4.16205,-0.56688 4.5387,-7.10821 0.3676,-6.38607 0.23472,-6.70784 -2.77039,-6.70784 -5.60916,0 -7.19847,-1.29424 -7.19847,-5.86193 0,-4.41982 -0.41856,-4.71867 -8.30493,-5.93031 -2.16082,-0.33199 -2.55537,-1.37526 -2.55537,-6.75759 v -6.36498 l -5.74957,-0.33695 c -11.51192,-0.67464 -11.34378,-0.51948 -11.76286,-10.85313 -0.36133,-8.91218 -0.49267,-9.25352 -3.56934,-9.27118 -2.89381,-0.0166 -3.23049,-0.58052 -3.5807,-5.99586 -0.38063,-5.88886 -0.45652,-5.98335 -5.11073,-6.37008 l -4.72424,-0.39255 -0.38036,-7.98552 -0.38037,-7.98551 h -4.27423 c -5.07048,0 -5.82534,-1.42084 -5.82534,-10.96481 v -6.92275 h -4.40507 -4.40519 l -0.38611,-6.70784 -0.38624,-6.70783 h -8.94379 -8.94378 l -0.38036,7.98551 c -0.28364,5.95522 -0.85222,7.98552 -2.23595,7.98552 -1.31639,0 -1.85558,1.50132 -1.85558,5.16674 0,3.39222 -0.54851,5.0955 -1.5971,4.95934 -5.95336,-0.77307 -7.34668,0.0846 -7.34668,4.52232 0,3.08282 -0.75715,4.83215 -2.49377,5.76155 -2.13795,1.14419 -2.38595,2.24444 -1.73855,7.71104 l 0.75524,6.37644 h -5.77116 c -6.91163,0 -9.2816,2.2189 -8.19149,7.66927 0.67731,3.38647 0.41793,3.82988 -2.2399,3.82988 -2.97969,0 -6.48616,2.79503 -5.16452,4.11666 0.37806,0.37803 -1.29634,1.05946 -3.72074,1.51429 -4.82491,0.90515 -5.93254,2.60227 -5.93254,9.08977 0,4.03536 -0.28466,4.31382 -4.79131,4.68682 -4.39216,0.36351 -4.84447,0.76547 -5.43015,4.82562 -0.56257,3.89996 -1.09088,4.43418 -4.42295,4.47189 -3.40988,0.0386 -3.95418,0.64299 -5.50439,6.11181 l -1.72028,6.06899 h -8.24577 -8.24584 l 0.81724,5.11073 c 0.80711,5.0474 0.76772,5.11073 -3.17911,5.11073 -4.64586,0 -4.89564,1.41557 -2.2544,12.77683 1.32771,5.71114 2.17381,7.10618 4.51765,7.44864 2.45575,0.35879 2.84263,1.11764 2.60549,5.11072 -0.50238,8.4606 -0.39097,8.63471 5.18944,8.10254 5.07891,-0.48435 5.11072,-0.45967 5.11072,3.96969 0,4.77063 1.86019,5.97859 9.26321,6.01535 3.40502,0.0169 3.51362,0.23463 3.51362,7.0447 v 7.02726 h 6.2517 c 7.39064,0 7.80281,0.64665 7.80281,12.24248 v 8.20044 h 5.11073 5.11074 v 5.74957 5.74957 h 5.03356 c 4.89442,0 5.04467,0.13258 5.43015,4.79131 0.33156,4.006 0.92018,4.86478 3.5908,5.23955 4.24394,0.59553 4.88841,1.93364 4.1379,8.59205 -0.49523,4.39421 -0.18194,5.78049 1.448,6.40592 1.47649,0.56651 2.08019,2.39616 2.08019,6.30459 0,3.23714 0.65813,5.75072 1.59711,6.09927 2.02755,0.75269 8.90762,-0.39556 10.38334,-1.73279 z M 661.28573,819.723 c 0.99391,-6.62757 -0.64702,-9.57102 -5.33561,-9.57102 -2.74854,0 -3.03781,-0.54745 -3.03781,-5.74957 0,-5.53662 -0.14195,-5.74957 -3.83305,-5.74957 -3.60843,0 -3.83305,-0.29415 -3.83305,-5.01879 v -5.01881 l -7.02725,-0.87799 -7.02726,-0.878 v -6.24119 -6.24119 h -4.94514 c -4.88075,0 -4.94374,-0.0623 -4.84191,-4.79132 0.10098,-4.70994 0.0153,-4.79783 -5.10703,-5.17591 l -5.21013,-0.38461 -1.12768,-7.92033 c -0.97257,-6.83141 -1.52274,-7.97646 -4.00234,-8.32862 -2.34327,-0.3328 -2.87479,-1.21871 -2.87479,-4.7913 0,-4.15739 0.23023,-4.38303 4.47189,-4.38303 3.88569,0 4.47189,-0.40759 4.47189,-3.10934 0,-2.4422 0.75383,-3.19609 3.51362,-3.51364 3.05047,-0.35098 3.56589,-1.03586 3.91023,-5.19559 0.36989,-4.46904 0.67487,-4.7913 4.53577,-4.7913 4.62688,0 7.20562,-1.92051 7.20562,-5.36628 0,-1.86973 1.06214,-2.29983 5.67956,-2.29983 h 5.67955 l 0.38944,-6.06898 c 0.35366,-5.51232 0.79957,-6.26967 4.86132,-8.2568 2.45954,-1.20328 5.99872,-2.49426 7.86479,-2.86882 2.96933,-0.59603 3.50276,-1.47931 4.27244,-7.07541 0.76341,-5.55065 1.26439,-6.39437 3.79727,-6.39437 3.56218,0 5.21511,-1.90363 6.37896,-7.34667 0.75575,-3.53429 1.4434,-4.15248 4.61946,-4.15248 4.04783,0 4.04553,0.006 3.74782,-9.90203 l -0.20161,-6.70784 h 4.56452 c 3.61354,0 4.56452,0.49982 4.56452,2.39892 0,1.31941 0.86243,3.11468 1.91652,3.9895 1.0541,0.87481 1.91653,3.57126 1.91653,5.99211 0,3.8201 0.33756,4.2944 2.55537,3.5905 1.46588,-0.46525 2.55536,-0.2296 2.55536,0.55274 0,0.75009 1.43739,1.36379 3.1942,1.36379 2.86661,0 3.19421,0.5162 3.19421,5.03361 0,4.89249 0.13404,5.04471 4.78224,5.43015 4.67146,0.38734 4.80268,0.54014 5.66155,6.59043 0.98841,6.96321 1.16984,7.27906 4.45195,7.75408 1.60106,0.23174 2.55715,1.73209 2.99182,4.69544 0.62363,4.25085 0.79727,4.36404 7.27053,4.73843 6.43288,0.37206 6.64343,0.50606 7.02725,4.47189 0.34204,3.53522 0.93207,4.14063 4.3615,4.4748 l 3.96592,0.38646 0.89847,11.11269 c 0.49434,6.11197 1.0095,12.55007 1.14494,14.30688 0.21758,2.82321 -0.3474,3.26843 -4.86453,3.83306 -4.471,0.55887 -5.16234,1.0895 -5.52342,4.23898 -0.34587,3.01762 -0.96605,3.56424 -3.83305,3.37824 -7.87768,-0.51107 -9.16992,-0.0643 -9.16992,3.17084 0,2.11391 -1.2377,3.85309 -3.83306,5.38621 -2.10817,1.24534 -3.83304,2.96271 -3.83304,3.81643 0,0.8537 -1.29366,1.7359 -2.87479,1.96046 -2.0393,0.28962 -2.99004,1.40652 -3.27151,3.84317 -0.27763,2.40444 -1.23589,3.55433 -3.1942,3.83304 -2.32436,0.33082 -2.72964,1.10055 -2.3963,4.55064 0.35035,3.62692 0.0192,4.15247 -2.61925,4.15247 -4.42576,0 -6.08687,2.36634 -6.08687,8.67102 0,6.97204 -6.42228,16.88263 -10.94017,16.88263 -3.40604,0 -4.39203,2.17468 -4.39203,9.68712 v 5.64507 h -9.0221 -9.02198 z m 17.01809,-29.47811 c 0.26205,-0.23343 0.77313,-5.62409 1.13548,-11.97927 0.56281,-9.87201 0.98241,-11.55485 2.88054,-11.55485 2.71635,0 4.47572,-2.09651 5.55472,-6.61924 0.53088,-2.22534 1.80205,-3.56797 3.62913,-3.83305 2.26993,-0.32934 2.82381,-1.27028 2.87274,-4.8799 l 0.06,-4.47189 8.69488,-0.37941 8.69488,-0.37941 -0.38994,-5.37016 -0.38995,-5.37017 -8.30494,-0.63884 -8.30493,-0.63884 -0.3736,-9.17358 c -0.36389,-8.93445 -0.46879,-9.19446 -4.02253,-9.97503 -3.94919,-0.86738 -5.14012,-3.39059 -5.16912,-10.95215 -0.0243,-6.47148 -2.43309,-9.14419 -8.41763,-9.34179 l -5.01542,-0.16561 -0.3925,7.65615 c -0.25681,5.0119 -1.02904,8.01248 -2.23595,8.68785 -1.39203,0.77905 -1.84343,3.83204 -1.84343,12.46734 v 11.43566 h -9.65979 -9.65981 l 0.3966,4.79131 c 0.37628,4.54646 0.65775,4.82395 5.50733,5.43015 4.63223,0.57903 5.07418,0.95268 4.72104,3.99093 -0.2144,1.84366 0.47516,4.21705 1.53232,5.2742 1.05715,1.05716 2.31286,4.86707 2.79033,8.46648 0.82232,6.19928 1.56809,7.12827 5.33024,6.63975 1.16818,-0.15171 1.5971,2.69574 1.5971,10.60244 0,11.30938 0.71985,12.73539 5.74957,11.38924 1.40545,-0.37614 2.7699,-0.87489 3.03194,-1.10831 z M 370.35739,522.67337 c -0.43545,-26.13584 -0.31078,-28.10902 1.77588,-28.10902 1.23431,0 2.28163,-0.7187 2.32738,-1.5971 0.0457,-0.87841 0.18949,-10.0296 0.31942,-20.33596 0.21575,-17.11358 0.48074,-19.06957 3.05525,-22.5517 1.95932,-2.65008 3.22231,-7.02921 4.14148,-14.35982 1.91001,-15.23266 3.47167,-18.87951 8.28597,-19.34997 3.82291,-0.37358 3.92815,-0.56265 4.30196,-7.72961 0.37537,-7.19698 0.45997,-7.34669 4.15246,-7.34669 3.64413,0 3.76947,-0.2015 3.77476,-6.06898 0.004,-4.60263 0.92974,-7.4582 3.83082,-11.81857 2.10393,-3.16227 4.48312,-7.76193 5.28707,-10.22147 0.80394,-2.45954 2.24233,-5.60599 3.19642,-6.99213 0.9541,-1.38612 1.73473,-4.40464 1.73473,-6.70783 0,-3.61497 0.43678,-4.18759 3.1942,-4.18759 2.85555,0 3.1942,-0.52296 3.1942,-4.93241 0,-2.71281 0.36141,-7.56904 0.80311,-10.7916 0.74328,-5.42281 1.10014,-5.8881 4.79131,-6.24732 l 3.98821,-0.38812 v -8.08836 c 0,-6.65159 0.45392,-8.40011 2.55536,-9.84332 5.94894,-4.08557 7.02726,-6.06126 7.02726,-12.87531 0,-6.65073 0.0444,-6.72703 4.15247,-7.12312 l 4.15246,-0.40038 -0.41574,-7.98551 c -0.37819,-7.26421 -0.18566,-7.98552 2.13145,-7.98552 4.86487,0 6.58881,-1.4526 6.60668,-5.56685 0.0285,-6.56032 1.20967,-9.11916 4.97975,-10.78796 3.5072,-1.55244 3.59169,-1.85139 5.04367,-17.84626 2.69361,-29.67254 1.5969,-40.05034 -4.32327,-40.90963 -2.34958,-0.34102 -2.52922,-1.44111 -2.60801,-15.97103 -0.0465,-8.58263 -0.6215,-19.342 -1.27768,-23.90972 -1.14365,-7.96103 -1.35161,-8.32294 -5.02195,-8.73964 -5.07985,-0.57673 -5.71109,-1.88266 -5.73416,-11.86299 -0.0193,-8.34893 -0.0711,-8.47497 -3.79576,-9.21988 -3.72336,-0.74467 -3.78148,-0.88548 -4.15247,-10.06175 l -0.37628,-9.30653 -4.72708,-0.39271 -4.72708,-0.39272 -0.38365,-6.63453 -0.38365,-6.63454 -5.9392,-0.0552 c -7.33238,-0.0682 -10.03184,-2.158314 -10.03184,-7.767294 0,-4.262822 -0.0701,-4.31545 -5.74956,-4.31545 h -5.74958 v -5.725232 c 0,-4.99146 -0.39643,-5.824726 -3.09314,-6.501553 -7.56251,-1.898074 -7.73542,-1.508228 -8.12166,18.311736 l -0.3545,18.191023 h -5.69015 c -7.10479,0 -7.22484,0.38645 -6.74029,21.69893 l 0.3626,15.94934 -3.83304,0.68329 c -3.04593,0.54299 -3.83305,1.33455 -3.83305,3.85475 0,1.74429 -0.47414,3.90467 -1.05363,4.80084 -0.57949,0.89618 -0.87833,4.05728 -0.66408,7.02467 0.29209,4.04538 -0.0836,5.42713 -1.50173,5.52266 -1.04022,0.07 -2.5876,0.21497 -3.43864,0.32201 -1.0463,0.13159 -1.6669,3.81488 -1.91652,11.37433 l -0.36918,11.17972 -3.82889,0.43471 c -2.1059,0.23909 -4.25318,1.10152 -4.77174,1.91652 -0.51858,0.815 -0.95166,6.15816 -0.96241,11.87368 -0.0175,9.30857 -0.28596,10.46153 -2.57495,11.06012 -2.32986,0.60927 -2.55536,1.74277 -2.55536,12.84551 v 12.17727 l -4.40819,-0.71534 c -3.87075,-0.62814 -4.49069,-0.34576 -5.08499,2.31626 -0.63259,2.83344 -3.28365,26.33047 -3.28365,29.10377 0,0.69191 -2.73105,1.43327 -6.06899,1.64746 l -6.069,0.38942 -0.79617,15.97103 c -0.90329,18.1195 -3.01639,34.8299 -5.02538,39.74079 -0.74853,1.82976 -1.1823,6.14194 -0.96391,9.58263 0.36232,5.70849 0.67651,6.25761 3.59126,6.27672 3.17626,0.0208 3.19878,0.10465 4.00685,14.90381 0.44695,8.18557 1.22768,20.68146 1.73493,27.76866 l 0.92228,12.88579 h 3.41579 c 3.34742,0 3.42111,0.17672 3.68194,8.83046 0.1464,4.85676 1.06284,11.89999 2.03654,15.65162 0.97371,3.75163 2.84247,15.63121 4.15281,26.39904 2.35205,19.32827 2.42511,19.58645 5.72954,20.24733 3.30072,0.66014 3.33837,0.79171 2.71605,9.48938 l -0.63106,8.81997 h 4.64357 4.64356 l 0.006,15.65161 c 0.004,8.60839 0.37783,21.25745 0.83155,28.10902 l 0.82493,12.45741 h 5.69752 5.69751 z m 37.23981,-27.60439 c 0,-7.16502 0.29772,-8.17073 2.41868,-8.17073 2.82191,0 3.96974,-2.38633 3.96974,-8.25299 0,-4.53536 1.92249,-6.85799 6.38841,-7.71805 3.52613,-0.67906 6.38842,-2.99439 6.38842,-5.16761 0,-0.91329 2.29983,-3.62909 5.11073,-6.03511 2.81091,-2.40603 5.11073,-5.2254 5.11073,-6.26526 0,-1.03986 1.50145,-3.28453 3.33654,-4.98817 4.90731,-4.55576 13.37523,-17.41385 14.75203,-22.40018 0.8392,-3.03935 1.94237,-4.33446 3.6921,-4.33446 1.6827,0 2.4953,-0.87329 2.4953,-2.68168 0,-4.62109 3.85873,-11.19623 6.81812,-11.61783 2.30261,-0.32803 2.95962,-1.62429 3.93226,-7.75825 1.07333,-6.76905 1.48651,-7.44922 5.11073,-8.41328 3.30496,-0.87913 3.88347,-1.59984 3.5752,-4.45414 -0.35306,-3.26892 -0.11002,-3.41169 6.06899,-3.565 3.54023,-0.0879 7.01173,-0.30346 7.71446,-0.47913 0.70271,-0.17569 1.85263,-0.3913 2.55536,-0.47913 0.70273,-0.0879 1.29598,-1.74085 1.31832,-3.67335 0.0223,-1.93248 0.88479,-4.62969 1.91653,-5.99377 1.03174,-1.36408 1.87588,-4.09513 1.87588,-6.069 0,-3.07192 0.51115,-3.58884 3.54877,-3.58884 5.43756,0 8.88821,-3.1509 9.8801,-9.02185 0.90467,-5.35474 2.35383,-6.55095 9.88884,-8.16278 2.63528,-0.56372 3.51363,-1.50986 3.51363,-3.78477 0,-3.22604 2.113,-4.58426 7.13176,-4.58426 2.74666,0 3.0897,-0.56068 3.0897,-5.04976 v -5.04976 l 7.98551,-0.38038 7.98552,-0.38039 0.63885,-5.74958 0.63884,-5.74957 6.00427,-0.38678 c 6.56466,-0.42289 8.36033,-2.68572 6.86359,-8.64921 -0.73279,-2.91962 -0.45787,-3.10302 4.67593,-3.11943 9.7029,-0.0311 11.32302,-0.95234 10.9202,-6.20988 l -0.35497,-4.63299 6.06899,0.42484 6.06901,0.42484 V 288.324 c 0,-4.54163 0.0434,-4.5773 5.49403,-4.5773 6.37921,0 8.56048,-1.67822 8.56048,-6.58606 0,-3.07377 0.60689,-3.62048 4.7913,-4.31591 7.44353,-1.23704 7.98553,-1.5784 7.98553,-5.02897 0,-2.83321 0.54454,-3.23431 4.39087,-3.23431 4.01998,0 4.42488,-0.35082 4.79132,-4.15247 0.38394,-3.98156 0.65021,-4.16849 6.46942,-4.5419 l 6.06899,-0.38942 v -5.51626 c 0,-5.42186 0.0856,-5.52988 4.97121,-6.31121 5.38147,-0.86052 6.52793,-2.46598 6.52793,-9.14165 0,-4.03536 0.28468,-4.31383 4.79131,-4.68681 4.54881,-0.37648 4.81163,-0.64364 5.19327,-5.27864 0.39379,-4.78334 0.49715,-4.87429 5.11074,-4.49585 l 4.70877,0.38624 -0.15,-9.80976 -0.14987,-9.80978 3.98292,-0.38773 3.98304,-0.38773 1.08067,-11.69934 1.08066,-11.69934 4.45221,-0.83524 4.45234,-0.83524 -0.77184,-10.14429 -0.77172,-10.1443 h 3.82385 3.82385 l 0.35877,-15.65161 c 0.35315,-15.40906 0.40336,-15.64541 3.23356,-15.25188 l 2.87479,0.39974 V 100.47953 76.762084 h -5.46529 c -6.99941,0 -10.62739,2.591728 -11.7106,8.36596 -0.84276,4.492141 -0.98242,4.5866 -6.21708,4.20341 l -5.35489,-0.392018 -0.38626,6.688158 -0.38611,6.688146 h -5.68287 c -5.46235,0 -5.68275,0.14864 -5.68275,3.83305 0,3.79433 -0.0715,3.83305 -7.02726,3.83305 h -7.02725 v 5.11073 5.11073 h -6.77249 c -7.7724,0 -13.26606,2.14891 -14.15174,5.53553 -0.45638,1.74536 -1.69408,2.28225 -4.85686,2.10694 -8.45327,-0.46856 -8.54884,-0.40372 -8.96575,6.08114 -0.31622,4.91877 -0.86985,6.12905 -2.94481,6.43815 -7.88138,1.17404 -8.30493,1.48287 -8.30493,6.05508 v 4.44755 l -6.069,0.0196 c -8.16848,0.0263 -9.67767,1.23623 -9.79982,7.85618 -0.0958,5.19942 -0.33782,5.56145 -3.93528,5.89028 -8.83756,0.80776 -9.89306,1.4271 -9.30148,5.4578 0.51652,3.51921 0.27358,3.77447 -3.59213,3.77447 -6.91754,0 -8.18815,1.03948 -8.18815,6.69877 v 5.14771 l -5.79658,-0.79452 c -6.40854,-0.87837 -7.12387,-0.19078 -7.48349,7.19345 -0.16792,3.44833 -0.75377,4.17849 -3.62057,4.51242 -3.33369,0.38833 -5.30077,3.30427 -4.54466,6.73685 0.22531,1.02282 -1.5088,1.97648 -4.56085,2.50817 -6.27805,1.09373 -7.17011,2.6309 -7.19403,12.39662 -0.0195,7.95088 -0.0357,7.98552 -3.71593,7.98552 -4.41978,0 -5.24742,1.70697 -5.24742,10.82261 0,6.73763 -0.0283,6.78588 -4.4719,7.61948 -4.08598,0.76655 -5.21407,2.25243 -4.63796,6.10898 0.41948,2.80799 -2.60923,7.24593 -5.19523,7.61253 -2.38325,0.33786 -3.01879,1.32401 -3.33847,5.18018 -0.29453,3.55257 -0.94388,4.71867 -2.55537,4.58888 -5.70296,-0.45932 -6.48153,0.17678 -6.87837,5.61976 -0.36955,5.06899 -0.67729,5.45576 -5.1842,6.51533 l -4.7913,1.12646 v 6.90032 c 0,6.6711 -0.11666,6.90099 -3.51363,6.9199 -5.53014,0.0308 -6.63849,1.49742 -7.52235,9.95397 l -0.82719,7.91403 h -4.28988 c -3.93518,0 -4.28987,0.32386 -4.28987,3.91703 0,5.32938 -2.24696,9.25153 -4.74988,8.29107 -4.40662,-1.69098 -6.43979,0.44834 -7.35003,7.73376 -0.67093,5.36986 -1.32337,6.91481 -2.69748,6.38751 -3.61194,-1.38603 -5.64554,0.65294 -5.64554,5.66053 0,4.09333 -0.46595,4.95134 -2.87479,5.29345 -2.47925,0.3521 -2.82321,1.0675 -2.50005,5.1996 0.28615,3.65886 -0.0987,4.7913 -1.62872,4.7913 -2.58724,0 -4.12255,4.1756 -5.24136,14.25478 -0.94528,8.51598 -1.90469,9.96967 -6.6009,10.00163 -2.82046,0.0192 -2.87478,0.3093 -2.87478,15.35176 v 15.33219 h -4.4719 c -4.25893,0 -4.47189,0.21295 -4.47189,4.47189 0,2.45954 0.0491,4.83883 0.10912,5.28731 0.1829,1.36661 -3.1364,2.97737 -6.17813,2.99807 -2.56708,0.0175 -2.88077,0.66915 -2.93086,6.08855 -0.0308,3.33795 -0.86187,8.3308 -1.84672,11.09525 -0.98487,2.76443 -1.49814,5.49953 -1.14063,6.07801 0.35752,0.57847 -0.26352,1.40233 -1.38008,1.8308 -1.49242,0.57269 -1.66894,1.21422 -0.6665,2.42209 0.98604,1.18811 0.90662,1.79726 -0.28681,2.19993 -1.26468,0.42671 -1.06095,1.72493 0.87161,5.5544 1.38712,2.74865 2.72868,5.42876 2.98125,5.9558 0.25258,0.52704 -0.69318,0.95826 -2.10167,0.95826 -2.28256,0 -2.6137,1.00674 -3.04681,9.2632 -0.26725,5.09476 -1.27064,11.90559 -2.22976,15.13517 -2.40055,8.08322 -1.53726,9.67039 4.92472,9.05414 l 5.25516,-0.50116 z m 57.49573,-25.40822 c 0.53681,-6.43218 1.04701,-7.71013 3.19421,-8.00078 10.01826,-1.35613 15.97103,-3.42087 15.97103,-5.5396 0,-1.70954 1.63538,-2.57919 6.70783,-3.56699 3.68931,-0.71844 8.93041,-1.19042 11.64686,-1.04883 5.2228,0.27221 5.96156,-0.40886 8.0364,-7.40868 1.0751,-3.62705 1.58778,-3.87788 9.5394,-4.66709 4.75976,-0.47243 10.84118,-2.09417 14.02598,-3.74032 3.09251,-1.59845 8.49752,-3.35948 12.01114,-3.9134 11.51008,-1.81458 11.47994,-1.80104 11.90209,-5.34773 0.59196,-4.97332 4.75381,-7.22707 13.61645,-7.37364 10.16459,-0.16809 13.22417,-1.15933 15.09229,-4.88958 1.70103,-3.39657 0.1293,-3.17658 26.14811,-3.65985 l 14.37393,-0.26698 v -4.33519 c 0,-5.23399 1.21942,-5.84146 13.6675,-6.80833 9.17824,-0.7129 9.19638,-0.72176 9.58262,-4.68741 0.42751,-4.3889 0.0127,-4.25024 13.48326,-4.46462 l 9.2632,-0.14738 v -5.09643 c 0,-4.46373 0.35686,-5.08369 2.87479,-4.99394 1.58113,0.0564 7.76192,-0.52068 13.73508,-1.28231 5.97318,-0.76162 11.29152,-1.38912 11.81857,-1.39445 0.52704,-0.005 0.95826,-1.9416 0.95826,-4.30284 0,-4.26166 0.0512,-4.29843 6.99442,-5.01502 3.84685,-0.39704 7.58407,-1.08636 8.30494,-1.53184 0.72074,-0.44547 1.31052,-3.07585 1.31052,-5.84528 v -5.03532 l 6.06899,-0.0175 c 10.96725,-0.0316 11.81857,-0.63279 11.81857,-8.34765 0,-6.06808 0.30537,-6.83276 2.87478,-7.19766 2.20272,-0.31283 2.96831,-1.37816 3.27483,-4.55665 0.30512,-3.16395 1.13893,-4.33381 3.51362,-4.92982 2.91594,-0.73183 3.1136,-1.33038 3.1136,-9.42701 0,-4.75505 0.35072,-10.39917 0.77938,-12.54248 0.76432,-3.82173 0.96375,-3.9142 10.3362,-4.79246 l 9.55669,-0.89554 -0.43403,-12.61723 -0.43416,-12.6172 3.51362,0.001 3.51364,10e-4 0.12776,-12.4574 c 0.18117,-17.72059 0.0932,-17.56814 10.09408,-17.56814 h 8.30494 v -14.01913 -14.01915 l -5.74958,-1.02858 c -3.16227,-0.56571 -7.61818,-0.69932 -9.90203,-0.29688 -3.54136,0.62401 -4.15248,1.26709 -4.15248,4.37013 0,4.06441 -1.82325,5.18954 -8.40945,5.18954 -4.13944,0 -4.36738,0.23333 -4.36738,4.47189 v 4.47189 h -10.22145 -10.22147 v 3.58848 3.58847 l -25.81762,1.53068 c -14.19966,0.84187 -26.33087,2.04397 -26.95822,2.67133 -1.64731,1.64733 0.15026,6.28992 3.03271,7.8326 2.74408,1.46854 3.36862,5.07867 0.87176,5.0391 -0.8784,-0.014 -5.58078,-0.60109 -10.44978,-1.30484 -9.3442,-1.35053 -10.94782,-0.82561 -11.28833,3.69504 -0.21694,2.87991 -0.67039,2.99867 -12.4399,3.258 -5.52227,0.12164 -5.76541,0.29087 -6.14987,4.27915 -0.38458,3.98787 -0.62096,4.15247 -5.9646,4.15247 -8.37138,0 -9.60614,0.83875 -9.60614,6.52512 v 4.97403 l -5.43015,0.0196 c -6.62134,0.024 -8.23466,0.95559 -8.81498,5.09117 -0.24647,1.75681 -1.31065,3.25038 -2.36474,3.31903 -1.05409,0.0686 -4.64757,0.21238 -7.98551,0.31942 l -6.069,0.1946 v 5.66471 c 0,5.22988 -0.26972,5.69573 -3.51363,6.069 -2.78828,0.32082 -3.51362,1.06369 -3.51362,3.59849 0,2.76831 -0.68139,3.27938 -5.11074,3.83304 -4.03862,0.50484 -5.11398,1.17489 -5.12635,3.19421 -0.0115,1.88684 -0.74255,2.45436 -2.79416,2.16929 -1.84269,-0.25604 -3.30872,0.60463 -4.35273,2.55536 -0.86582,1.61779 -1.33331,3.22892 -1.03889,3.58029 0.29443,0.35136 -2.62694,0.92631 -6.49194,1.27768 l -7.02725,0.63884 -0.39056,4.69103 c -0.36494,4.38328 -0.72488,4.74751 -5.48646,5.55197 -4.32163,0.73012 -5.20866,1.42482 -5.83813,4.57216 -0.60479,3.02393 -1.39723,3.71124 -4.27889,3.71124 -3.8273,0 -5.08773,1.8912 -5.08773,7.6339 0,4.05804 -1.79915,5.17737 -6.78881,4.22354 -2.89893,-0.55416 -3.43265,-0.2111 -3.43265,2.20647 0,1.78578 -2.13549,4.74239 -5.67676,7.85954 -3.12223,2.74829 -6.68262,7.2767 -7.91199,10.06312 -1.67379,3.79375 -2.97574,5.06623 -5.18352,5.06623 -2.96872,0 -3.44354,1.83207 -3.39409,13.09625 0.006,1.47455 -0.9761,2.23595 -2.88547,2.23595 -2.33255,0 -2.97309,0.80707 -3.29565,4.15246 -0.36785,3.81519 -0.80109,4.18538 -5.33368,4.55749 -3.56534,0.2927 -5.10934,1.07813 -5.5681,2.83246 -0.34914,1.33511 -1.76231,2.78531 -3.14037,3.2227 -3.48771,1.10696 -7.42951,8.04555 -7.43521,13.08794 -0.006,5.09053 2.89166,11.07962 6.01696,12.4373 1.56019,0.67776 -0.75125,1.43483 -7.29942,2.39077 l -9.58263,1.39893 -0.39653,4.79131 c -0.3936,4.75552 -0.43881,4.79131 -6.0539,4.79131 -5.59312,0 -5.66645,0.0568 -6.45834,5.00913 -0.64505,4.03395 -1.45501,5.17328 -4.16041,5.85229 -5.04509,1.26623 -6.56795,3.065 -6.56795,7.75793 0,4.95793 2.65364,7.06945 8.30494,6.60826 3.71704,-0.30333 3.85239,-0.54447 4.47189,-7.96766 z M 307.93795,435.79093 v -7.66609 h 3.87316 c 4.73561,0 5.92975,-2.50739 3.7269,-7.82555 -0.89911,-2.17063 -1.68328,-6.32875 -1.74261,-9.24025 -0.10273,-5.04182 -0.3206,-5.32599 -4.57977,-5.97338 -2.78653,-0.42354 -4.33585,-1.31315 -4.11095,-2.36048 1.78712,-8.32205 1.69607,-12.60782 -0.31046,-14.61435 -1.18224,-1.18223 -3.26617,-2.14952 -4.63096,-2.14952 -2.30922,0 -2.45808,-0.85908 -2.14469,-12.37648 0.33346,-12.25528 0.30548,-12.38432 -2.85745,-13.17615 -3.41884,-0.85591 -3.579,-1.7819 -1.92314,-11.11794 0.89759,-5.06065 0.76071,-5.41535 -2.39549,-6.2075 -3.13405,-0.78661 -3.35711,-1.34041 -3.49884,-8.68717 -0.25581,-13.2607 0.12228,-13.8155 9.09515,-13.34478 l 5.74958,0.30163 v -11.45644 -11.45643 l -5.11073,-0.63884 c -5.56817,-0.69603 -5.59363,-0.78373 -3.06146,-10.54089 1.17094,-4.51195 1.53594,-4.79131 6.25996,-4.79131 6.48422,0 7.97608,-2.62675 6.8643,-12.08621 l -0.832,-7.07903 h -4.86136 c -4.80415,0 -4.86597,-0.0638 -5.25424,-5.41913 -0.31014,-4.27786 -0.93104,-5.49919 -2.94825,-5.79933 -7.1263,-1.06025 -8.12464,-1.66195 -8.94351,-5.39022 -0.82954,-3.77684 -0.96543,-3.83424 -9.07719,-3.83424 -7.6084,0 -8.32744,-0.24306 -9.44948,-3.19422 -1.10992,-2.91931 -1.87689,-3.1942 -8.91216,-3.1942 -7.3591,0 -7.69771,-0.14051 -7.69771,-3.19421 0,-2.51053 -0.64949,-3.1942 -3.0345,-3.1942 -1.66897,0 -4.83124,-0.35935 -7.02726,-0.79855 -3.36085,-0.67218 -3.99275,-1.3799 -3.99275,-4.4719 0,-3.57731 -0.17533,-3.6738 -6.70783,-3.69077 -9.22846,-0.0241 -12.24481,-1.03664 -12.70503,-4.26527 -0.70105,-4.91809 -13.80689,-4.46816 -13.80689,0.474 0,1.96046 0.86408,2.53102 3.83304,2.53102 h 3.83305 v 11.34331 c 0,9.80012 0.33933,11.58178 2.49419,13.09625 2.33019,1.63769 3.10621,5.95242 3.81968,21.2376 0.041,0.87841 1.22446,1.5971 2.62991,1.5971 2.0506,0 2.55537,0.8518 2.55537,4.31219 0,2.37169 0.35934,6.10891 0.79855,8.30493 0.65873,3.29368 1.40504,3.99277 4.26241,3.99277 3.14404,0 3.66017,0.70606 5.58986,7.64679 1.39141,5.0046 2.126,12.50976 2.126,21.72061 v 14.07381 h 4.4272 4.42719 l 0.36412,13.07363 0.36412,13.07363 5.43014,-0.39451 c 6.06212,-0.44041 5.60377,-1.50911 5.94232,13.85542 0.11051,5.0155 0.50936,5.80374 3.12399,6.17391 2.68627,0.3803 2.9104,0.88753 2.15987,4.88816 -0.46057,2.4551 -0.28332,5.13892 0.39391,5.96407 0.67723,0.82513 1.43015,2.93764 1.67317,4.69446 0.29573,2.13794 1.36766,3.32596 3.24157,3.59265 2.10752,0.29993 2.89726,1.40556 3.19421,4.47189 0.32688,3.37542 0.99656,4.14272 3.9081,4.47773 3.38934,0.38998 3.51362,0.67034 3.51362,7.92547 v 7.52117 l 4.79131,1.33061 c 2.63522,0.73183 5.44296,1.33383 6.23941,1.33773 0.79645,0.004 1.76227,1.20861 2.14628,2.67705 0.52863,2.02149 1.34058,2.46605 3.34322,1.83043 2.26699,-0.71952 2.64502,-0.30066 2.64502,2.93063 0,2.6956 0.72832,3.96059 2.55538,4.43838 2.0081,0.52512 2.55536,1.74277 2.55536,5.68563 0,5.82441 0.62496,6.72099 4.68484,6.72099 2.79197,0 2.98125,-0.48674 2.98125,-7.66611 z m 391.60977,-19.43132 c 14.8049,-2.56053 43.74939,-5.60559 57.17631,-6.01515 2.1115,-0.0644 3.51362,-0.82208 3.51362,-1.8987 0,-3.0017 7.38182,-4.59689 21.27241,-4.59689 h 13.22503 v -4.41399 c 0,-4.90316 1.31832,-5.45272 14.69335,-6.12514 6.3704,-0.32027 6.38867,-0.33378 6.47083,-4.79306 l 0.0817,-4.47189 10.3192,0.43891 c 13.70059,0.58273 15.70847,-0.54064 15.70847,-8.78879 v -6.34347 l 7.34668,-0.0175 c 4.04067,-0.0102 8.72146,-0.38537 10.40187,-0.83503 l 3.05506,-0.81757 -0.87534,-18.79812 -0.87533,-18.79812 3.88913,-0.77784 3.88927,-0.77785 v -9.65465 c 0,-10.37522 0.47657,-11.0992 7.48071,-11.36406 3.80111,-0.14373 4.88356,-3.12882 5.14497,-14.18897 0.13492,-5.71019 0.53458,-6.56565 3.72739,-7.97891 3.43773,-1.52172 3.63551,-2.11688 5.11072,-15.38353 2.40243,-21.6057 2.53122,-20.92913 -3.89565,-20.46414 -5.27095,0.38137 -5.44178,0.5334 -5.82675,5.1842 l -0.39646,4.79132 h -8.95069 c -11.33061,0 -13.89339,1.29729 -13.89339,7.03289 v 4.38759 l -15.65161,0.35875 -15.65161,0.35876 -0.40426,3.51362 c -0.36465,3.16903 -0.89719,3.51363 -5.43015,3.51363 -5.01172,0 -5.0259,0.0145 -5.0259,5.11072 v 5.11074 h -6.38841 c -6.67653,0 -6.61392,-0.0633 -6.94471,7.02725 -0.0983,2.10897 -1.14736,2.62222 -6.00485,2.93806 l -5.88566,0.38268 -0.80391,5.86464 c -0.44208,3.22555 -0.80379,7.50926 -0.80379,9.51935 0,3.17617 -0.48246,3.65472 -3.68407,3.65472 -4.15618,0 -5.21308,2.22089 -5.24221,11.01513 l -0.0178,5.26554 -6.31317,0.83745 c -6.89744,0.91498 -9.03244,3.63583 -6.52678,8.31758 1.00272,1.87375 2.93522,2.63531 7.41746,2.92304 5.50975,0.35372 6.06133,0.67973 6.06133,3.58333 0,2.49201 -0.90052,3.45947 -4.09626,4.40085 -2.64952,0.78051 -4.22874,2.13414 -4.47188,3.83305 -0.27036,1.88993 -1.45056,2.71877 -4.20869,2.95578 -14.16031,1.21676 -14.69335,1.43713 -14.69335,6.07356 v 4.32985 l -7.34667,0.38318 c -6.53331,0.34075 -7.39242,0.70496 -7.75912,3.28944 -0.48079,3.38754 -4.94911,6.64793 -10.79935,7.87989 -3.81325,0.80299 -4.1084,1.23232 -3.95904,5.75884 l 0.1615,4.89116 -10.06328,-0.77602 c -12.94485,-0.99824 -13.89748,-0.58766 -13.89404,5.98849 v 5.29345 l -13.60923,-0.4054 c -10.22121,-0.30447 -13.875,0.0137 -14.67648,1.27768 -1.30925,2.06471 -1.45146,11.77243 -0.19089,13.03295 1.0675,1.06763 18.0318,-0.11729 29.10995,-2.03334 z M 238.69777,374.04252 c 0.33989,-5.32847 0.0352,-6.26295 -2.23595,-6.85686 -2.39243,-0.62564 -2.62947,-1.66075 -2.62947,-11.48291 0,-13.22576 -1.12893,-15.73801 -7.0722,-15.73801 h -4.42694 v -10.86031 c 0,-10.70725 -0.0446,-10.8603 -3.16656,-10.8603 -2.93554,0 -3.14842,-0.41708 -2.91777,-5.71649 0.19411,-4.46018 -0.37355,-6.29629 -2.58301,-8.35471 -1.5575,-1.45102 -2.83181,-3.47826 -2.83181,-4.50497 0,-1.36086 -1.55925,-1.86675 -5.75361,-1.86675 h -5.75361 l 0.69017,5.74956 c 0.65365,5.44526 0.52357,5.74957 -2.45763,5.74957 -1.98171,0 -3.30772,-0.8283 -3.57945,-2.23594 -0.33454,-1.733 -1.72075,-2.23594 -6.16268,-2.23594 h -5.73105 l 0.40564,-5.43015 0.40565,-5.43016 h -14.77958 -14.77957 v -3.83304 c 0,-3.48224 -0.38471,-3.83305 -4.2036,-3.83305 -3.11121,0 -5.67119,-1.32814 -9.85091,-5.11074 -6.2028,-5.61346 -8.10918,-6.02758 -14.82673,-3.22081 -3.5636,1.48897 -4.43584,2.50545 -4.11144,4.79131 0.25955,1.82878 1.42933,3.04641 3.16421,3.29364 2.40724,0.34306 2.86221,1.48556 3.62792,9.1102 0.76298,7.5974 1.27912,8.90184 4.01553,10.14864 1.72702,0.78687 5.04363,1.43068 7.37026,1.43068 3.94616,0 4.30678,0.36465 5.37003,5.43016 1.07294,5.11167 1.4205,5.45338 5.92605,5.82639 4.01663,0.33253 4.90695,0.94888 5.53687,3.83305 1.39393,6.38227 1.65221,6.63101 6.88549,6.63101 4.76255,0 5.15231,0.26486 5.17041,3.51363 0.0287,5.16209 1.35468,6.47062 7.02426,6.93207 4.48534,0.36505 5.14247,0.83451 5.49844,3.92823 0.3794,3.29738 0.78771,3.51363 6.63437,3.51363 h 6.23009 l 0.39289,5.43014 0.39287,5.43016 6.06899,0.38942 c 4.7731,0.30628 6.06899,0.86556 6.06899,2.61925 0,3.05331 2.49891,5.29626 5.90062,5.29626 3.96781,0 6.99481,1.3298 6.14756,2.70069 -0.39268,0.63537 -0.35063,2.3 0.0934,3.69917 0.62731,1.97648 1.93715,2.54393 5.87215,2.54393 3.65749,0 5.29394,0.62125 5.8897,2.23594 1.11253,3.01534 3.05326,4.23276 6.12208,3.84037 2.09238,-0.26754 2.62667,-1.44451 2.94889,-6.49596 z M 511.90516,-4.3707704 c -0.4045,-1.054088 -0.17853,-1.916524 0.50213,-1.916524 0.68068,0 1.23759,0.862436 1.23759,1.916524 0,1.054088 -0.22596,1.916525 -0.50215,1.916525 -0.27616,0 -0.83308,-0.862437 -1.23757,-1.916525 z"
       id="path1" />
  </g>
</svg>
