<?xml version="1.0" encoding="UTF-8" standalone="no"?>
<!-- Created with Inkscape (http://www.inkscape.org/) -->

<svg
   version="1.1"
   id="svg1"
   width="1024"
   height="1024"
   viewBox="0 0 1024 1024"
   xmlns="http://www.w3.org/2000/svg"
   xmlns:svg="http://www.w3.org/2000/svg">
  <defs
     id="defs1" />
  <g
     id="g1">
    <path
       style="fill:#000000;stroke-width:1.26554"
       d="m 197.4938,1019.7593 c 0,-5.5115 -2.68344,-6.3984 -15.96384,-5.2759 l -9.34698,0.7902 v -5.6095 -5.6094 l -6.01132,-0.3857 c -5.76392,-0.3699 -6.02764,-0.5551 -6.40789,-4.49881 -0.38208,-3.96276 -0.60178,-4.11298 -6.01132,-4.11298 h -5.61475 v -5.69493 -5.69494 h -6.3277 -6.32771 v -11.38986 -11.38987 h -5.06216 -5.06216 l 0.005,-9.17517 c 0.003,-5.04635 0.37388,-17.24667 0.82519,-27.11194 0.7315,-15.98947 1.07445,-18.00308 3.15922,-18.54814 1.50576,-0.39384 2.33866,-1.7648 2.33866,-3.8494 0,-1.9426 1.01251,-3.77966 2.53108,-4.59239 2.36293,-1.26466 2.53108,-2.64992 2.53108,-20.85131 0,-20.84637 -0.0461,-20.69754 6.85001,-22.12317 l 3.90709,-0.80767 v -22.71924 -22.71924 l 6.01132,-0.38574 6.01132,-0.38574 V 788.7047 769.79094 h 4.42939 c 4.204,0 4.42939,-0.22159 4.42939,-4.35472 0,-2.39517 0.5695,-4.70668 1.26555,-5.13683 0.69604,-0.43016 1.26554,-3.84472 1.26554,-7.58781 0,-6.75305 0.0318,-6.80861 4.113,-7.20219 3.76567,-0.36308 4.14648,-0.80248 4.50947,-5.20403 0.30827,-3.73816 1.08249,-5.06837 3.48023,-5.98006 1.77641,-0.67542 3.08379,-2.19306 3.08379,-3.57984 0,-3.30255 2.73464,-5.2892 6.07716,-4.41509 2.56456,0.67061 2.78162,0.27741 2.78162,-5.03875 0,-5.74961 0.0137,-5.76732 4.74578,-6.15901 l 4.74578,-0.39269 v -8.85879 -8.85879 l 5.06216,-0.0747 c 4.6484,-0.0683 5.09446,-0.37916 5.45728,-3.79663 0.21732,-2.04688 1.29412,-4.41256 2.3929,-5.25705 1.65179,-1.26947 1.88483,-3.51593 1.34568,-12.9718 -0.64869,-11.37696 -0.63646,-11.43644 2.3529,-11.43644 2.71774,0 3.00497,-0.5443 3.00497,-5.69493 0,-6.17837 0.0323,-6.20014 8.5424,-5.75087 l 5.37855,0.28399 V 601.03189 549.7399 l 4.74577,-0.39278 4.74578,-0.39278 0.37954,-7.27686 c 0.27845,-5.33883 0.86828,-7.27686 2.21469,-7.27686 1.41324,0 1.83516,-1.87407 1.83516,-8.15133 0,-4.48323 0.5695,-8.5033 1.26554,-8.93347 0.69605,-0.43018 1.26555,-3.59601 1.26555,-7.03516 v -6.25302 l 5.37854,6e-4 5.37855,5.9e-4 v -28.15881 -28.15888 l 5.06217,-0.67714 c 8.34338,-1.11604 8.22601,-0.82015 8.22601,-20.73973 v -18.10364 l 5.74596,-0.78757 c 10.34208,-1.41753 10.70607,-1.92028 10.70607,-14.78748 v -11.34533 h 4.34532 c 3.7996,0 4.39563,-0.4371 4.74578,-3.48024 0.31409,-2.72966 1.14806,-3.56632 3.86688,-3.87935 5.48737,-0.6318 7.03902,-4.08962 6.3234,-14.09144 l -0.62409,-8.7224 3.64315,-0.41616 c 3.30319,-0.37734 3.67946,-0.91806 4.03229,-5.79471 0.37702,-5.21075 0.52507,-5.37855 4.74578,-5.37855 h 4.35664 v -7.59325 -7.59324 h 3.79662 c 3.64872,0 3.79662,-0.21902 3.79662,-5.62218 v -5.62216 l 5.37855,-0.38916 c 4.55624,-0.32965 5.44331,-0.84688 5.80215,-3.38313 0.23366,-1.65147 1.51047,-3.27821 2.84747,-3.62784 1.4865,-0.38873 2.42386,-1.74037 2.42386,-3.49514 0,-4.78743 2.96852,-6.1153 12.04275,-5.3869 l 8.2059,0.65869 0.14973,-11.56053 c 0.22456,-17.33782 0.79573,-19.07354 6.43081,-19.54242 4.50794,-0.37509 4.68431,-0.57372 5.05648,-5.69493 0.38284,-5.26796 0.42446,-5.30909 5.76417,-5.69543 4.98359,-0.36058 5.37855,-0.65501 5.37855,-4.0095 0,-6.28594 1.1343,-7.62398 6.4631,-7.62398 4.34386,0 4.92677,-0.356 4.92677,-3.0089 0,-3.85306 2.08657,-5.53779 7.509,-6.06288 4.21627,-0.40829 4.33743,-0.57575 4.42431,-6.11471 l 0.0894,-5.69494 6.96047,-0.63277 c 6.73849,-0.6126 6.96172,-0.75386 6.99957,-4.42939 0.0356,-3.45912 0.45751,-3.83154 4.74578,-4.18941 4.66614,-0.38939 4.70669,-0.44118 4.70669,-6.01132 0,-4.79251 0.37565,-5.61853 2.55519,-5.61853 2.09711,0 2.41209,-0.57014 1.75698,-3.18029 -1.00491,-4.00393 1.32172,-6.93442 4.9446,-6.22788 1.52123,0.29667 5.47096,0.18353 8.77718,-0.25143 l 6.01132,-0.79082 v -6.79742 -6.79744 h 9.49156 9.49155 v -3.79662 -3.79662 h 9.4284 9.4284 l 0.37954,-7.27686 0.37955,-7.27686 6.3277,-0.63277 c 6.03615,-0.60363 6.34574,-0.8191 6.71911,-4.67668 0.3649,-3.76987 0.75082,-4.07003 5.69494,-4.4294 l 5.30352,-0.38548 0.21933,-5.69493 c 0.12061,-3.13222 0.263,-6.4068 0.31639,-7.27686 0.0662,-1.07899 2.51116,-1.58193 7.6903,-1.58193 6.431,0 7.59324,-0.34411 7.59324,-2.24814 0,-1.8596 0.87488,-2.16471 5.06217,-1.76538 l 5.06216,0.48275 v -5.75853 -5.75851 l 6.01132,-0.38572 c 5.81219,-0.37296 6.03228,-0.53246 6.64409,-4.81512 0.61603,-4.31222 0.78342,-4.42939 6.3277,-4.42939 5.4069,0 5.71249,-0.19204 6.04195,-3.79663 0.88555,-9.6885 0.64778,-9.489886 11.38335,-9.508844 13.84809,-0.02442 15.47876,-0.63048 15.47876,-5.75249 0,-4.047061 0.20697,-4.223996 5.37855,-4.598178 5.13287,-0.371373 5.36335,-0.562559 5.04575,-4.185764 -0.6009,-6.855144 0.67362,-7.452795 15.28126,-7.16572 l 13.2458,0.260322 -0.17618,-6.671628 -0.17618,-6.671627 14.23733,-0.357845 14.23734,-0.357831 v -6.286258 -6.286245 h 16.83169 c 11.40393,0 17.32141,-0.489727 18.35034,-1.518649 0.83526,-0.835257 1.51865,-3.611537 1.51865,-6.169512 0,-4.157314 0.40372,-4.731616 3.80442,-5.411756 2.09243,-0.418489 10.06534,-0.402657 17.71757,0.03518 l 13.91316,0.79605 V 25.067284 17.76686 l 17.01353,0.497167 c 9.35745,0.273446 17.27862,0.766526 17.6026,1.095744 0.32398,0.329217 0.28546,3.27284 -0.0857,6.541403 -0.63127,5.56066 -0.92908,5.967595 -4.6308,6.327704 -3.75829,0.365628 -3.97543,0.685506 -4.34185,6.396196 l -0.38574,6.011318 h -9.51779 -9.51781 l 0.37107,6.011319 0.37106,6.011319 -18.62581,0.350214 -18.62583,0.350213 v 6.156679 c 0,5.588628 -0.30627,6.233548 -3.31943,6.989809 -1.8257,0.458215 -10.22573,0.740013 -18.66673,0.626203 l -15.34729,-0.206916 -0.11188,6.032618 -0.11187,6.032618 -17.92213,-0.27871 -17.92212,-0.27871 v 5.146942 5.146954 h -11.38987 -11.38987 v 6.444033 6.444033 l -6.64409,-0.43271 -6.64409,-0.43271 v 5.69493 5.69493 l -5.37855,0.38915 c -5.19352,0.37576 -5.37855,0.53675 -5.37855,4.67964 0,4.28356 -0.0101,4.29112 -6.64408,4.67302 -6.19697,0.35677 -6.67105,0.61672 -7.04455,3.86276 -0.37651,3.27223 -0.77361,3.48024 -6.64409,3.48024 h -6.24363 v 4.91455 c 0,5.26144 -1.63247,6.42012 -9.09879,6.45803 -3.01608,0.0153 -3.44858,0.55788 -3.79662,4.76306 -0.38827,4.69127 -0.46101,4.75017 -6.33457,5.12866 l -5.94181,0.38289 -0.3859,5.31204 -0.3859,5.31206 -5.9447,0.383 -5.9447,0.383 -0.383,5.9447 c -0.36625,5.68466 -0.56964,5.97238 -4.64929,6.57748 -3.69851,0.54856 -4.54505,1.38966 -6.36102,6.32035 -2.0204,5.4857 -2.26203,5.67318 -6.80721,5.28158 l -4.71245,-0.406 v 6.42467 6.42467 h -5.06217 -5.06216 v 5.69494 c 0,3.13221 -0.56949,5.69493 -1.26554,5.69493 -0.69605,0 -1.27332,2.42035 -1.28283,5.37855 -0.032,9.98189 -0.78304,11.07348 -7.6181,11.07348 -3.34105,0 -6.26448,-0.569 -6.49649,-1.26443 -0.23201,-0.69544 -0.095,-5.6785 0.30435,-11.07348 0.39941,-5.39499 0.50817,-10.23617 0.24169,-10.75821 -0.58851,-1.15293 -8.67072,-1.24363 -14.09787,-0.15819 -3.7809,0.75617 -3.95481,1.06247 -3.95481,6.96528 v 6.17433 l -4.11301,-0.3212 -4.11301,-0.3212 -0.63277,7.59325 c -0.55072,6.6087 -0.94646,7.53893 -3.05206,7.17439 -1.33062,-0.23037 -4.32046,-0.0621 -6.64409,0.37374 -3.35874,0.6301 -4.2248,1.39914 -4.2248,3.75148 0,1.89458 0.91043,3.19698 2.53108,3.6208 4.67808,1.22333 2.65818,3.42993 -3.13974,3.42993 -4.86376,0 -5.75411,0.40524 -6.25602,2.84747 -0.32187,1.5661 -0.92548,17.0848 -1.34137,34.48598 -0.41589,17.40119 -1.091,34.34362 -1.50027,37.64984 l -0.74408,6.01132 h -5.5319 c -5.98947,0 -10.59405,-3.19037 -10.59405,-7.34027 0,-7.33444 2.88902,-36.50577 3.72133,-37.57542 0.54632,-0.70211 1.34751,-4.83588 1.78043,-9.18618 l 0.78713,-7.90963 -4.72638,0.0172 c -8.20738,0.03 -10.4213,1.13312 -10.4213,5.19249 0,2.75347 -0.59579,3.64903 -2.42759,3.64903 -5.5122,0 -6.4312,1.25612 -6.4312,8.79039 0,5.9578 -0.6219,8.07373 -3.48023,11.84111 -2.09637,2.76308 -4.58356,4.6054 -6.25495,4.63318 -2.35076,0.0391 -2.83416,0.8679 -3.16385,5.42468 -0.37774,5.22082 -0.52832,5.39007 -5.13492,5.77132 l -4.74578,0.39279 v 41.58294 c 0,22.87062 -0.34568,42.48377 -0.76817,43.58477 -0.99991,2.6057 -11.31995,2.7499 -13.87595,0.19389 -1.44308,-1.44307 -1.80791,-6.78148 -1.80791,-26.45421 v -24.6463 l -6.32849,-0.43853 -6.3285,-0.43852 7.9e-4,5.41826 c 8.3e-4,5.68529 -0.74334,6.45159 -6.90303,7.10832 -4.63801,0.4945 -5.70923,2.64341 -4.86617,9.76181 1.03834,8.76714 -0.0843,11.75596 -4.9537,13.18883 -3.92776,1.15578 -4.19274,1.60846 -4.7905,8.18394 l -0.63277,6.96048 -4.70958,0.39062 -4.70955,0.39061 -0.35261,16.69419 -0.35259,16.69418 -6.64409,0.38252 -6.64409,0.38252 v 6.89434 6.89434 h -5.50924 -5.50923 l -0.82811,9.80794 c -0.45545,5.39437 -1.4151,10.00505 -2.13256,10.24597 -0.83657,0.28091 -1.26856,8.67833 -1.20439,23.4125 0.055,12.63596 0.0769,25.46045 0.0486,28.49885 l -0.0515,5.52436 -6.96047,-0.86966 -6.96048,-0.86965 v 6.76995 c 0,4.17218 -0.78104,7.88503 -2.03542,9.67592 -1.54686,2.20844 -2.17193,7.06044 -2.60415,20.21386 -0.31281,9.51934 -0.80274,18.01976 -1.08872,18.88982 -0.29759,0.90538 -2.62577,1.58192 -5.44383,1.58192 h -4.92385 l -0.25045,25.94359 -0.25046,25.94355 h 3.13277 c 5.7319,0 7.13641,-1.24529 7.13641,-6.3277 0,-4.99294 1.42419,-6.32834 6.74758,-6.32695 2.65431,7.6e-4 2.737,-0.43345 2.53068,-13.28815 l -0.21332,-13.28892 h 4.95906 4.95907 v -10.12432 -10.12433 h 6.26169 6.2617 l -0.0368,-7.69494 c -0.0281,-5.87463 0.48307,-8.07508 2.16085,-9.30191 1.83118,-1.33899 2.05753,-2.79926 1.3573,-8.75708 l -0.84035,-7.15013 h 5.07321 5.07322 v -6.32771 -6.3277 h 6.3277 6.32771 v -6.96047 c 0,-3.82827 0.53674,-6.96048 1.19277,-6.96048 0.65603,0 1.3679,-2.42035 1.58193,-5.37855 0.36805,-5.08703 0.62922,-5.41284 4.81854,-6.01132 4.18931,-0.59847 4.45048,-0.9243 4.81854,-6.01132 0.38727,-5.3524 0.41341,-5.37854 5.37855,-5.37854 h 4.9894 v -6.17276 c 0,-3.94298 0.68572,-6.74184 1.89832,-7.74819 1.25673,-1.04301 1.89831,-3.87553 1.89831,-8.38098 0,-6.55895 0.12604,-6.80874 3.48023,-6.89447 7.67003,-0.19603 8.5424,-1.29866 8.5424,-10.79709 0,-8.51715 0.0771,-8.72537 3.16386,-8.54603 1.74012,0.10112 4.53415,0.6179 6.20898,1.14845 3.02733,0.95899 3.0403,0.92357 2.21944,-6.06067 -1.2903,-10.97844 -0.10605,-14.67216 5.01219,-15.63234 3.98814,-0.74818 4.27696,-1.1347 4.27696,-5.72368 0,-4.32016 0.36282,-4.92132 2.97021,-4.92132 4.7194,0 8.41966,-4.06057 8.41966,-9.23956 0,-3.9828 0.40904,-4.56034 3.48023,-4.91371 3.13467,-0.3607 3.48773,-0.90309 3.55574,-5.46261 0.0747,-5.0088 0.13038,-5.06623 5.28009,-5.44651 l 5.2046,-0.38434 -0.71137,-6.89252 -0.71137,-6.89251 h 5.79559 c 5.78361,0 5.79641,-0.0101 6.18837,-4.74578 l 0.39278,-4.74578 6.64409,-0.38252 c 5.68857,-0.32751 6.64409,-0.74899 6.64409,-2.93067 0,-4.20302 2.43135,-7.44391 5.58451,-7.44391 4.59857,0 5.98088,-2.86557 6.74251,-13.97736 0.6438,-9.39292 0.96627,-10.37308 3.7625,-11.43621 1.68211,-0.63953 4.64151,-1.16278 6.57646,-1.16278 5.41358,0 7.707,-3.50599 7.707,-11.7818 0,-6.58669 0.25214,-7.21638 3.18415,-7.95228 1.7513,-0.43954 4.32147,-0.50176 5.7115,-0.13826 1.66205,0.43464 2.9702,-0.16658 3.82085,-1.75601 0.71142,-1.32931 1.98905,-2.41693 2.83915,-2.41693 1.70723,0 4.69301,-8.35191 4.69301,-13.1274 0,-2.47568 0.82572,-3.19786 4.42939,-3.87391 2.92937,-0.54955 4.46878,-1.56155 4.54568,-2.98831 0.0639,-1.18654 0.20634,-3.86582 0.31639,-5.95397 0.19539,-3.70736 0.37119,-3.80555 7.47695,-4.17617 l 7.27686,-0.37953 v -5.63179 -5.63177 h 5.69494 5.69493 v -4.90721 c 0,-5.89614 1.58457,-7.42846 8.24206,-7.97029 4.975,-0.40489 5.04612,-0.48203 5.04612,-5.47284 v -5.06216 l 5.92798,-0.38234 5.928,-0.38232 -0.23306,-5.26195 c -0.22568,-5.09532 -0.0914,-5.28591 4.23932,-6.01811 6.10245,-1.03175 7.55026,-2.13388 7.55026,-5.74755 0,-2.75318 0.54304,-3.08916 4.99283,-3.08916 h 4.99281 l 0.38574,-6.01132 c 0.38074,-5.93372 0.44596,-6.01633 5.05287,-6.39942 3.68777,-0.30665 4.75004,-0.96891 5.06216,-3.15597 0.31553,-2.21093 1.60458,-2.988 6.40634,-3.86182 5.9377,-1.08054 6.01132,-1.15344 6.01132,-5.95305 v -4.85912 l 6.64409,-0.38252 6.64408,-0.38253 -0.41721,-6.47013 c -0.37867,-5.87264 -0.14494,-6.54302 2.53109,-7.25958 1.62156,-0.43419 4.79914,-0.79723 7.0613,-0.80673 l 4.113,-0.0173 v -6.8752 c 0,-7.99778 1.58155,-9.12063 10.88209,-7.72593 l 5.56994,0.83526 v -5.698 c 0,-5.69401 0.004,-5.69874 5.37855,-6.75517 5.22252,-1.02651 5.38984,-1.21223 5.76769,-6.40219 0.42777,-5.87536 0.0886,-5.70405 11.6335,-5.87481 l 6.96047,-0.10302 -0.41328,-5.25671 c -0.38412,-4.88562 -0.16077,-5.30793 3.16385,-5.98233 1.96742,-0.39909 4.71612,-0.59628 6.10822,-0.43822 2.12832,0.24166 2.593,-0.56847 2.92022,-5.09115 l 0.38916,-5.37855 h 8.94948 8.94949 l -0.88989,7.86564 c -0.48945,4.3261 -1.19983,8.36711 -1.57864,8.98003 -0.37881,0.61292 -3.18412,0.74019 -6.23405,0.28284 l -5.5453,-0.83157 v 9.56909 9.56911 h -5.69493 -5.69493 v 6.3277 6.32771 h -5.69494 c -5.45493,0 -5.69493,0.15641 -5.69493,3.71134 0,4.19148 -2.82983,5.75594 -8.04421,4.44722 -3.05081,-0.7657 -3.21519,-0.52511 -3.58787,5.25143 l -0.39056,6.05389 -5.06216,0.0759 c -4.22336,0.0634 -5.12781,0.53734 -5.45827,2.8601 -0.34147,2.40008 -1.30152,2.83648 -6.96047,3.16385 l -6.56437,0.37976 -0.38301,5.94469 -0.38301,5.9447 -5.90819,0.383 -5.90819,0.38302 0.36512,5.84321 c 0.2734,4.37532 -0.13316,6.03441 -1.61843,6.60436 -1.39724,0.53617 -1.98355,2.45626 -1.98355,6.49582 v 5.73466 h -5.69494 c -4.85125,0 -5.69493,0.37496 -5.69493,2.53108 0,1.83329 -0.8437,2.53108 -3.06036,2.53108 -6.11199,0 -7.06397,1.11703 -7.06397,8.28865 v 6.7523 l -5.37855,0.38916 c -5.28358,0.38228 -5.3858,0.47824 -5.78924,5.43527 -0.56673,6.96353 -2.27244,8.63979 -8.00871,7.87041 -4.53403,-0.60814 -4.74364,-0.4709 -5.11467,3.34899 -0.36029,3.70936 -0.75657,4.00988 -5.76542,4.37228 l -5.37855,0.38915 v 7.52048 7.52048 h -6.88772 -6.88771 l -0.38915,5.37855 -0.38914,5.37855 -6.01132,0.38573 -6.01132,0.38572 v 5.62559 5.6256 h -5.06216 -5.06217 v 5.79051 5.79052 l -6.01132,-0.37455 -6.01131,-0.37456 -0.38254,7.3395 -0.38252,7.33952 -4.99603,-0.84407 -4.99601,-0.84408 v 8.25708 8.25707 l -4.11301,0.39657 c -4.06633,0.39206 -4.11732,0.47914 -4.49256,7.67343 -0.39254,7.52618 -0.58256,7.72984 -6.83212,7.32242 -3.23651,-0.21101 -3.3767,0.0135 -2.68187,4.29528 l 0.73315,4.51794 h -5.76399 -5.76398 l -1.07097,6.64409 -1.07096,6.64409 h -5.03689 c -4.11088,0 -5.08227,0.46532 -5.28379,2.53108 -1.689,17.31461 -1.61661,17.0848 -5.3809,17.0848 -2.95453,0 -3.71351,0.68737 -4.54154,4.11301 -0.54679,2.26216 -0.85819,5.96386 -0.69199,8.22602 0.16621,2.26215 -0.16948,4.16422 -0.74595,4.22683 -0.57646,0.0626 -3.20636,0.27508 -5.8442,0.47216 -2.63786,0.19707 -5.18806,0.75029 -5.66713,1.22936 -0.47907,0.47907 -1.1683,3.82593 -1.53162,7.43747 l -0.66058,6.56645 -5.37854,-0.40179 -5.37855,-0.4018 v 7.04589 c 0,4.70874 -0.52473,7.09828 -1.58193,7.20388 -0.87006,0.0869 -3.2904,0.22926 -5.37855,0.31638 -3.66432,0.15285 -3.80996,0.38992 -4.17914,6.80247 -0.35128,6.10133 -0.63558,6.64409 -3.48024,6.64409 -2.93405,0 -3.09771,0.39168 -3.09771,7.41343 v 7.41343 l -5.37855,1.1307 -5.37855,1.1307 -0.37183,9.17344 c -0.24174,5.96407 -0.90587,9.24533 -1.89831,9.37893 -0.83957,0.11302 -3.51971,0.25539 -5.95588,0.31639 l -4.42939,0.11086 0.45118,9.17517 0.45118,9.17517 h -6.4625 -6.4625 l -0.0173,5.37855 c -0.0306,9.53115 -0.70645,10.55927 -6.57343,9.99976 l -5.18154,-0.49414 0.7043,10.27548 0.7043,10.27549 h -4.9425 -4.94249 v 6.24364 c 0,5.87048 -0.20801,6.26758 -3.48024,6.64409 -3.25818,0.3749 -3.4887,0.8042 -3.6129,6.72816 -0.23619,11.26616 0.0523,10.75709 -6.09432,10.75709 h -5.59421 l -0.73806,7.90963 c -0.40593,4.3503 -0.87839,9.90286 -1.04988,12.33903 -0.29912,4.24895 -0.53092,4.44524 -5.69036,4.81853 l -5.37855,0.38916 v 5.66189 c 0,3.86534 -0.60235,5.89303 -1.89831,6.39033 -1.32767,0.50947 -1.89831,2.58041 -1.89831,6.88907 v 6.16078 l -3.92473,-0.78501 c -5.38037,-1.07609 -6.15719,0.66112 -6.18023,13.82008 -0.019,10.86277 -0.0776,11.07349 -3.07973,11.07349 -6.13213,0 -7.06397,1.10823 -7.06397,8.40104 0,7.22611 0.0591,7.29546 7.27686,8.54252 l 4.11301,0.71073 v -6.92883 -6.92884 h 4.999 4.99901 l 0.37954,-7.27686 0.37955,-7.27686 6.96047,-0.63277 6.96048,-0.63277 0.38254,-5.93374 c 0.34756,-5.39083 0.69489,-5.96968 3.79663,-6.32771 3.0293,-0.34967 3.36766,-0.85753 3.0023,-4.50697 -0.40746,-4.0701 0.67846,-5.15417 3.00613,-3.00085 0.66124,0.61164 5.02774,1.3988 9.70333,1.74923 8.09353,0.60658 8.48788,0.50774 8.22602,-2.06131 -0.23212,-2.27714 0.66352,-2.87976 5.73626,-3.85971 5.90926,-1.14154 6.01132,-1.24266 6.01132,-5.95588 v -4.79461 l 9.17517,-0.37183 c 8.86575,-0.3593 9.18822,-0.48451 9.56221,-3.71325 0.42114,-3.63557 -0.90636,-3.34988 26.43556,-5.68917 l 7.83949,-0.67073 0.38652,-4.6409 0.38654,-4.64089 10.44071,-0.36758 c 8.14046,-0.28658 10.44071,-0.77451 10.44071,-2.21469 0,-2.07724 4.48734,-2.5355 5.69493,-0.58158 1.88481,3.0497 3.16386,0.74743 3.16386,-5.69494 0,-4.64683 0.52582,-7.009 1.58192,-7.10645 0.87006,-0.0802 2.15142,-0.27829 2.84747,-0.44002 0.69605,-0.16171 1.97067,-0.38077 2.83251,-0.48679 0.86183,-0.10605 1.93123,-2.47072 2.37644,-5.25491 0.67843,-4.24273 1.29164,-5.06217 3.7881,-5.06217 1.63823,0 6.94784,-0.68066 11.79913,-1.51255 8.52516,-1.46191 8.83317,-1.642 9.19866,-5.37855 0.36495,-3.73125 0.59342,-3.866 6.55489,-3.866 6.98505,0 7.54084,-0.71735 8.69014,-11.21646 l 0.67369,-6.15429 -4.60645,0.76182 c -2.53353,0.419 -7.02677,0.76808 -9.98497,0.77574 -5.12938,0.0133 -5.37855,0.18982 -5.37855,3.81056 v 3.79662 h -11.38987 -11.38987 v 4.8791 4.87912 l -25.6272,0.68148 c -14.09496,0.37481 -25.71327,0.59956 -25.81848,0.49943 -0.10516,-0.1001 -0.38995,-2.46001 -0.63277,-5.2442 l -0.44149,-5.06216 6.01132,-0.38574 6.01132,-0.38572 v -5.6256 -5.62558 h 10.12432 c 5.56838,0 10.12433,0.4954 10.12433,1.10088 0,0.60549 3.47093,1.78376 7.71318,2.61837 6.73098,1.32424 8.2965,1.24067 12.29391,-0.65622 4.3999,-2.08789 4.46675,-2.21586 1.6934,-3.24179 -2.21628,-0.81985 -2.79403,-1.8791 -2.48596,-4.55766 0.22075,-1.91929 0.97084,-3.51759 1.66689,-3.55181 0.69605,-0.0342 2.60423,-0.51791 4.2404,-1.07487 1.81989,-0.6195 3.51501,-0.4725 4.36612,0.3786 0.76519,0.76518 4.29567,1.39126 7.84551,1.39126 3.54985,0 7.06828,0.61401 7.81873,1.36447 0.75047,0.75046 2.99996,1.17758 4.99889,0.94915 3.00952,-0.34391 3.69187,-1.0681 3.96859,-4.21193 0.1838,-2.08815 0.63672,-5.64748 1.0065,-7.90963 l 0.67232,-4.11301 h 10.63042 10.6304 l 0.38574,-6.01132 0.38572,-6.01132 6.01132,-0.38574 c 4.90307,-0.31461 6.01132,-0.82437 6.01132,-2.76508 0,-1.30864 0.65851,-3.98253 1.46336,-5.94196 0.80484,-1.95945 1.34176,-4.54022 1.19315,-5.73506 -0.17086,-1.3737 0.87566,-2.46 2.84646,-2.95464 3.31091,-0.83098 4.57595,-3.6819 4.60407,-10.3758 0.0171,-4.07758 0.0706,-4.11301 6.20959,-4.11301 6.40042,0 7.72864,-1.10526 7.72864,-6.43121 0,-2.25153 -1.04934,-2.42758 -14.46966,-2.42758 h -14.46966 l -0.40044,3.48024 -0.40045,3.48024 -17.67592,0.35388 c -15.21562,0.30463 -18.03403,0.68409 -20.24865,2.72617 -3.75437,3.46183 -11.2918,5.1309 -23.20711,5.1389 l -10.51006,0.008 0.38573,-6.01131 0.38573,-6.01132 16.76841,-0.35313 16.76842,-0.35311 v -5.02544 -5.02542 h 12.82236 12.82236 l 4.47062,-4.74578 4.47062,-4.74578 15.92747,-0.63277 15.92746,-0.63277 0.39657,-4.11301 c 0.38768,-4.02087 0.53416,-4.113 6.53862,-4.113 3.37814,0 6.3319,-0.53534 6.56391,-1.18962 0.23202,-0.65429 6.11679,-1.6509 13.07726,-2.2147 l 12.65541,-1.02508 0.3912,-4.04107 c 0.35346,-3.65112 0.8376,-4.07855 5.01729,-4.42939 4.55125,-0.38204 4.64971,-0.50676 6.08559,-7.70881 0.80272,-4.02626 1.81323,-7.67422 2.24559,-8.10658 0.43235,-0.43235 2.92798,-1.1316 5.54584,-1.55387 4.68976,-0.75649 4.7656,-0.86014 5.15709,-7.04778 0.21854,-3.45401 0.94495,-6.93983 1.61423,-7.74627 1.79844,-2.16698 -1.50026,-3.02739 -11.60662,-3.02739 h -8.75528 l -0.0194,4.74578 c -0.0321,7.86649 -0.88416,8.36794 -12.94019,7.61579 -5.87491,-0.36652 -11.97668,-1.35948 -13.55949,-2.20659 -3.78866,-2.02762 -13.97824,-0.60167 -13.97824,1.95616 0,1.00745 -1.51788,3.53528 -3.37304,5.61738 l -3.37305,3.78568 h -18.61897 c -15.00629,0 -18.92464,-0.36834 -20.19441,-1.89831 -0.8665,-1.04407 -2.92946,-1.89831 -4.58436,-1.89831 -2.66225,0 -3.00888,-0.57809 -3.00888,-5.0179 v -5.01789 l 12.97179,-0.36066 c 12.89,-0.35839 12.97193,-0.38061 12.99374,-3.5245 l 0.0219,-3.16385 14.84816,-0.35656 14.84816,-0.35654 v -4.38924 -4.38922 h 17.71757 17.71758 v -3.11933 c 0,-3.49336 3.18663,-5.73946 8.14281,-5.73946 2.84771,0 3.24705,-0.52809 3.24705,-4.294 0,-4.74677 1.52061,-5.83032 8.18191,-5.83032 2.99899,0 4.35086,-0.65992 4.78971,-2.33809 0.6598,-2.52308 6.31976,-3.95097 15.75905,-3.9757 l 5.31815,-0.0139 0.37678,-7.90862 0.37678,-7.90861 5.69493,-1.14832 c 3.13221,-0.63158 5.97968,-1.38913 6.3277,-1.68347 0.34803,-0.29433 0.91752,-4.90348 1.26555,-10.24255 l 0.63277,-9.70742 7.8102,0.40332 c 7.34324,0.37921 7.83508,0.22788 8.22602,-2.53108 0.33803,-2.38553 1.30351,-3.00788 5.16158,-3.32719 4.33803,-0.35904 4.74578,-0.71783 4.74578,-4.17586 0,-5.10124 2.87615,-10.3303 6.8525,-12.45839 5.20858,-2.78753 3.86595,-3.85439 -4.85069,-3.85439 -4.46737,0 -8.94847,-0.31695 -9.958,-0.70435 -1.138,-0.43669 -2.08746,0.25915 -2.49853,1.8311 -0.55232,2.11203 -1.90094,2.5995 -8.07595,2.91903 l -7.41291,0.38361 -0.39279,4.74578 -0.39277,4.74578 -14.16095,0.0114 c -7.78852,0.006 -17.01573,0.35412 -20.50491,0.7735 l -6.34397,0.7625 -1.56566,-5.85382 c -2.60178,-9.72775 -2.69264,-9.61413 7.68904,-9.61413 h 9.2547 l -0.0795,-6.01132 -0.0795,-6.01132 13.60456,-0.35921 13.60457,-0.3592 v -6.91766 -6.91765 h 8.64786 c 4.75632,0 9.01824,-0.37038 9.47092,-0.82308 0.4527,-0.45268 3.8222,-0.8798 7.48779,-0.94915 l 6.66472,-0.12605 0.37953,-7.27686 0.37954,-7.27686 h 6.6864 c 3.67752,0 7.09661,-0.41021 7.59797,-0.91158 0.50136,-0.50136 2.87425,-0.74248 5.27308,-0.53581 l 4.36152,0.37577 v -6.42467 -6.42466 h 6.85697 c 10.16694,0 10.91424,-0.52097 10.02749,-6.99054 -1.02524,-7.47993 0.24973,-11.99257 3.38831,-11.99257 1.38471,0 2.50697,-0.84979 2.50697,-1.89831 0,-1.55335 -2.17125,-1.89832 -11.94796,-1.89832 -6.60017,0 -12.29802,0.56645 -12.73009,1.26555 -0.43018,0.69604 -2.81295,1.26554 -5.29504,1.26554 -4.3795,0 -4.48952,-0.11694 -3.72193,-3.95482 0.43502,-2.17515 0.79096,-5.84077 0.79096,-8.14584 0,-3.80328 0.38051,-4.22771 4.11301,-4.58759 3.86055,-0.37222 4.13688,-0.72668 4.50214,-5.7751 l 0.38916,-5.37855 h 6.18025 c 3.39913,0 6.52202,-0.55299 6.93972,-1.22885 0.41771,-0.67588 3.55817,-1.60012 6.97882,-2.05389 l 6.21933,-0.82502 0.37274,-7.75407 0.37274,-7.75405 4.34277,-0.63278 c 3.34487,-0.48737 4.5429,-1.3849 5.21374,-3.906 0.47903,-1.80028 1.88193,-4.81615 3.11755,-6.70196 1.9656,-2.99988 2.04559,-4.03776 0.63953,-8.29814 -0.88388,-2.67817 -1.21757,-5.49961 -0.74154,-6.26984 0.47602,-0.77022 3.47574,-1.40041 6.66603,-1.40041 h 5.80053 l -0.81318,-7.78012 c -0.44724,-4.27906 -1.37768,-8.46029 -2.06762,-9.29161 -1.83165,-2.20702 -0.22511,-3.17693 5.26223,-3.17693 h 4.85125 v -9.491555 -9.491557 h 5.63949 5.63949 l 0.37183,-9.175171 0.37183,-9.175171 4.67939,-0.388824 c 4.61241,-0.383257 4.68488,-0.473844 5.06216,-6.327705 l 0.38278,-5.938879 5.82799,-0.378245 5.82801,-0.378232 0.74879,-11.557754 c 0.41183,-6.356761 0.46072,-12.023866 0.10858,-12.593562 -0.35208,-0.569683 -1.74553,-1.035794 -3.09655,-1.035794 -2.10999,0 -2.45639,-0.909038 -2.45639,-6.446184 0,-5.381865 0.41791,-6.555476 2.53109,-7.108075 2.04778,-0.535513 2.53108,-1.726223 2.53108,-6.2359911 V 1.5551565 l 24.99443,0.3431387 24.99443,0.3431388 v 13.92095 13.920949 l -6.15429,-0.217154 -6.15427,-0.217154 0.45934,12.239792 0.45935,12.239792 -7.27686,-0.327914 -7.27686,-0.327902 v 19.627399 19.627412 h -7.14805 -7.14805 l 0.78073,10.124326 0.78073,10.12433 h -3.70771 c -6.64725,0 -8.86846,4.00696 -8.86846,15.99826 v 10.45885 l -6.32771,-0.74943 -6.3277,-0.74943 v 5.87122 5.87121 h -5.01634 -5.01634 l -0.36221,12.33903 -0.36221,12.33902 -5.29607,0.38512 -5.29607,0.38511 -0.71076,6.57536 c -0.39091,3.61645 -0.85515,8.28384 -1.03163,10.37198 -0.29414,3.48021 -0.75506,3.82837 -5.53079,4.17753 l -5.20992,0.38091 -0.7904,6.57956 c -0.43473,3.61877 -0.79536,10.13891 -0.80141,14.4892 l -0.0114,7.90963 h -5.69493 -5.69493 v 6.48872 6.48871 l -6.27613,-0.60304 -6.2761,-0.60306 -0.36798,8.98444 c -0.33346,8.14181 -0.60536,8.9551 -2.89906,8.67155 -1.39209,-0.17207 -4.30592,-0.0181 -6.47517,0.34205 l -3.9441,0.65492 -1.11807,16.74276 -1.11806,16.74277 h -6.32771 -6.3277 l -0.63277,9.49155 -0.63277,9.49156 -4.74578,0.39277 -4.74578,0.39279 v 7.67356 7.67356 l -7.07527,-0.58674 -7.07526,-0.58673 0.65727,3.91026 c 0.36149,2.15064 1.04702,5.46584 1.5234,7.36711 0.47636,1.90128 0.50614,4.89112 0.0662,6.64409 -0.67488,2.68899 -1.53807,3.18994 -5.52161,3.20452 -8.82005,0.0323 -10.41659,1.00981 -10.41659,6.37784 0,4.52913 -0.25971,4.85941 -4.11301,5.23095 -3.97223,0.38299 -4.11301,0.59149 -4.11301,6.09151 v 5.69493 h -5.69493 -5.69494 l -0.63277,12.02264 -0.63277,12.02263 -4.8267,0.3976 -4.82669,0.39761 0.8437,6.75271 c 0.76067,6.08822 0.58812,6.83383 -1.75351,7.57703 -2.10685,0.66869 -2.66901,2.0665 -2.97748,7.4034 l -0.38027,6.57909 -5.95165,-0.19979 -5.95163,-0.19978 -0.37607,7.16026 -0.37606,7.16026 -6.01131,0.38573 -6.01132,0.38572 v 7.68062 7.68062 l -6.96048,-0.57723 -6.96047,-0.57721 v 8.64652 c 0,7.89455 -0.22737,8.64652 -2.61428,8.64652 -5.22772,0 -7.51005,2.32116 -7.51005,7.63777 v 5.01764 h -5.69493 c -5.6648,0 -5.69494,0.0234 -5.69494,4.4294 0,3.84104 -0.4065,4.42939 -3.06035,4.42939 -5.4956,0 -7.06397,1.29447 -7.06397,5.83032 v 4.29401 h -6.96048 -6.96047 v 11.38986 11.38987 h -6.96048 -6.96047 v 5.69493 5.69494 h -5.06217 -5.06216 v 6.96047 6.96048 h -5.69493 -5.69494 v 5.69493 c 0,5.44853 -0.15978,5.69493 -3.69312,5.69493 -6.59469,0 -7.43016,0.87234 -6.73576,7.03308 0.60734,5.38823 0.49513,5.62233 -2.69471,5.62233 -2.85457,0 -3.32844,0.54052 -3.32844,3.79663 0,3.65826 -0.20837,3.79662 -5.7179,3.79662 h -5.71789 l 0.33934,5.37855 0.33936,5.37854 -7.90963,0.37677 -7.90963,0.37678 v 5.17379 5.17379 l -5.5577,-0.76177 -5.55769,-0.76175 -0.84756,5.6519 c -0.8146,5.43213 -1.01677,5.65192 -5.19941,5.65192 -4.31405,0 -4.35184,0.0495 -4.35184,5.69493 v 5.69494 l -6.64409,0.11136 c -3.65425,0.0607 -9.49155,0.48812 -12.97179,0.94916 -6.25737,0.82893 -6.33474,0.89461 -6.96048,5.90046 l -0.63277,5.06216 -8.53798,-0.43142 c -6.90625,-0.34891 -8.68564,-0.0468 -9.31057,1.58192 -0.52329,1.36375 -2.36236,2.01335 -5.69935,2.01335 h -4.92677 v 6.32771 6.3277 h -10.05819 -10.05818 l -0.38253,6.64409 -0.38252,6.64409 -17.40119,0.35207 -17.40118,0.35208 v 6.13382 c 0,5.85743 -0.1782,6.16951 -3.95482,6.92479 -2.17515,0.43509 -7.30059,0.79096 -11.38987,0.79096 h -7.43505 l -0.008,7.27686 c -0.005,4.14616 -0.86338,8.91029 -1.99647,11.07348 -1.53143,2.92378 -1.93597,7.28825 -1.75953,18.98311 0.12605,8.35257 0.17018,16.18311 0.0981,17.40119 -0.10795,1.82491 -1.35601,2.2147 -7.09145,2.2147 h -6.96047 v 8.22601 8.22602 h -5.07239 -5.07239 l 0.21717,5.74112 c 0.11947,3.15765 -0.44547,6.40377 -1.25533,7.21359 -0.80986,0.80982 -1.47247,3.8604 -1.47247,6.77887 0,5.75276 -1.22612,6.84278 -7.69675,6.84278 -3.66198,0 -3.69312,0.0633 -3.69312,7.44568 0,6.2381 -0.38809,7.54705 -2.39304,8.07136 -2.04063,0.53368 -2.29596,1.48727 -1.73373,6.4754 l 0.65932,5.84945 h -4.59398 c -4.30152,0 -4.60569,0.26184 -4.77794,4.11301 -0.10112,2.26216 -0.0567,5.96386 0.099,8.22602 0.26836,3.90103 0.0496,4.1211 -4.24542,4.2712 -2.4906,0.0873 -5.09785,0.30056 -5.7939,0.47457 -0.69605,0.17402 -1.80066,0.38764 -2.45469,0.47458 -0.65403,0.0873 -1.3659,2.2938 -1.58193,4.90397 -0.38299,4.62758 -0.51885,4.74578 -5.45494,4.74578 -4.78612,0 -5.08379,0.22426 -5.45873,4.11301 -0.39409,4.08732 -0.43952,4.11301 -7.27686,4.11301 h -6.88029 v 5.62558 5.62558 l -6.01132,0.38574 c -3.64725,0.234 -6.07353,1.00787 -6.16951,1.96766 -0.0869,0.87006 -0.22938,3.29041 -0.31639,5.37855 -0.14748,3.53959 -0.49098,3.79662 -5.07275,3.79662 -5.16299,0 -6.41625,1.65773 -6.45803,8.5424 -0.0153,2.52855 -0.65517,2.84747 -5.71221,2.84747 h -5.69494 v 5.06216 c 0,4.80501 -0.19705,5.06217 -3.87981,5.06217 -7.2448,0 -8.77559,1.77378 -8.77559,10.16887 v 7.5487 h -5.03534 -5.03534 l 0.46317,7.54667 c 0.30868,5.02926 -0.10896,8.30081 -1.25211,9.80794 -1.2001,1.58205 -1.72739,6.51678 -1.75555,16.42925 l -0.0402,14.16799 6.01132,0.38573 6.01132,0.38574 0.63277,8.85879 0.63277,8.85878 h 6.30711 c 5.96184,0 6.34288,0.20046 6.96048,3.66134 0.35935,2.0136 1.79235,4.29157 3.18444,5.06216 1.3921,0.77046 3.01101,2.15648 3.59759,3.08007 0.62986,0.99181 2.96149,1.567 5.69494,1.40501 9.87158,-0.58481 10.55234,-0.30234 10.10234,4.19261 l -0.41176,4.11301 7.19577,0.37713 c 5.13417,0.26905 7.30964,0.91713 7.59324,2.26228 0.34166,1.6204 6.66185,1.92286 45.00816,2.15395 l 44.6107,0.2688 -3.8e-4,-6.64409 -3.7e-4,-6.64409 h 17.0848 17.0848 v -5.54003 c 0,-3.04692 0.74024,-6.15433 1.64499,-6.90517 0.90475,-0.75085 6.45731,-1.53245 12.33902,-1.73683 l 10.69404,-0.37169 0.63277,-7.59324 c 0.54001,-6.48021 1.0038,-7.61211 3.16385,-7.72221 4.93447,-0.25159 5.18521,-0.51647 4.66958,-4.9332 l -0.51711,-4.4294 h 6.38939 6.38937 l -0.2396,-5.26756 -0.2396,-5.26756 7.81917,0.2912 c 9.62792,0.35866 10.52291,-0.83196 10.55055,-14.03459 0.0101,-5.09203 0.44517,-9.92779 0.96558,-10.74596 0.52041,-0.81817 3.19919,-1.67241 5.95284,-1.89831 4.34737,-0.35663 5.02269,-0.82729 5.12852,-3.57452 0.34435,-8.94042 0.29363,-8.85879 5.50366,-8.85879 5.2515,0 6.41976,-1.63533 6.45801,-9.03976 0.018,-3.47378 1.98665,-4.88119 6.82815,-4.88119 3.69917,0 5.84004,-2.28708 5.86392,-6.26442 0.036,-5.98766 1.67666,-6.98655 11.63135,-7.08134 l 9.2307,-0.0873 0.63277,-6.25494 0.63277,-6.25506 h 13.92095 13.92095 l 0.63277,-6.3277 0.63277,-6.32771 16.76842,-0.35308 16.76842,-0.35309 0.0194,-4.70908 c 0.0101,-2.58993 0.47509,-5.42689 1.03208,-6.30429 0.79504,-1.25238 13.09895,-1.52434 57.24634,-1.26554 l 56.23365,0.32968 0.63277,7.59324 0.63277,7.59325 12.65541,-0.29019 c 6.96047,-0.15959 16.49949,-0.62113 21.19781,-1.02572 l 8.5424,-0.73566 v 5.77162 5.7715 h 10.75709 10.7571 v 6.47868 6.47869 l 11.9868,-0.52432 c 13.34601,-0.58366 13.32402,-0.59695 13.32402,8.06669 0,4.95168 0.10529,5.07811 3.48024,4.17793 1.91413,-0.51052 8.32093,-1.00408 14.23733,-1.09672 l 10.7571,-0.16844 0.38914,5.37855 0.38915,5.37854 h 12.96311 c 15.8886,0 19.77151,1.42817 19.78556,7.27686 l 0.0101,4.11301 h 29.10744 29.10744 l 0.0194,-4.11301 c 0.0337,-7.15321 1.07325,-7.71461 14.43019,-7.79358 l 12.1268,-0.0721 v -3.97696 c 0,-3.43354 0.53523,-4.08403 3.91643,-4.76034 3.90462,-0.78083 3.9138,-0.80235 3.04509,-7.11866 l -0.87134,-6.3353 h 5.81369 5.8137 l -0.0194,-12.97179 c -0.0208,-13.92513 -0.69388,-16.31219 -4.50023,-15.96037 -6.71629,0.621 -7.12754,0.20312 -6.67011,-6.77824 l 0.43264,-6.60283 -6.96048,-1.32857 -6.96047,-1.32843 -0.37787,-6.48793 -0.37785,-6.48779 -5.78102,-0.8669 c -4.89033,-0.73338 -5.99904,-1.44461 -7.19613,-4.61606 -1.28432,-3.40253 -1.88483,-3.71499 -6.49654,-3.38051 -4.43935,0.32195 -5.13251,0.0127 -5.48581,-2.47894 -0.38988,-2.74509 -0.87904,-2.84747 -13.60457,-2.84747 h -13.20016 v -5.65823 -5.65823 l -16.76841,-0.35309 -16.76842,-0.35309 -0.38573,-6.01132 -0.38573,-6.01131 h -9.42221 c -9.20667,0 -9.42221,-0.0721 -9.42221,-3.16386 0,-2.89998 -0.46889,-3.16385 -5.62218,-3.16385 h -5.62217 l -0.38915,-5.37855 -0.38914,-5.37855 -8.22602,-0.63277 c -8.20455,-0.63112 -8.22705,-0.64352 -8.62246,-4.74413 -0.5033,-5.21947 -3.92465,-7.1298 -11.2839,-6.30024 l -5.61479,0.63277 0.63848,-7.13322 c 0.35116,-3.9233 0.82561,-8.55696 1.05432,-10.29707 0.37606,-2.86127 -0.0669,-3.20321 -4.63027,-3.57452 -8.14858,-0.66327 -8.24206,-0.91702 -8.24206,-22.37641 0,-18.95894 0.0523,-19.32734 2.84747,-20.07641 1.5661,-0.41978 4.18378,-0.77097 5.81707,-0.78046 2.77348,-0.0165 2.94065,-0.43155 2.53108,-6.28962 l -0.43852,-6.27227 5.69493,-0.37181 5.69493,-0.37169 0.38226,-6.6365 c 0.40147,-6.97009 0.43052,-6.99819 8.47653,-8.19526 1.99802,-0.29728 2.61304,-1.50701 2.92022,-5.74429 l 0.38916,-5.36754 h 6.10733 c 6.4731,0 7.60665,-1.26567 7.6508,-8.5424 0.0158,-2.61018 0.60496,-2.84747 7.06816,-2.84747 4.58077,0 7.71604,-0.66517 8.94962,-1.89882 1.35639,-1.3564 3.29716,-1.67507 6.79462,-1.11582 l 4.89587,0.78286 0.39185,-6.16103 0.39184,-6.16095 25.19596,-0.63277 25.19595,-0.63277 0.11491,-8.53903 0.11491,-8.53904 53.4691,-0.004 53.4691,-0.004 v 13.92095 13.92096 h -48.09055 -48.09055 v 6.25304 c 0,3.61603 -0.6671,6.68206 -1.58193,7.27041 -0.87005,0.55949 -9.87056,1.06014 -20.00112,1.11253 -10.13055,0.0519 -19.10008,0.51596 -19.93227,1.03028 -0.83218,0.51431 -1.51307,3.46429 -1.51307,6.55537 v 5.62027 h -8.22601 c -7.99468,0 -8.22602,0.0911 -8.22602,3.25889 v 3.25877 l -11.38987,-0.89094 -11.38986,-0.89107 v 5.22542 5.22542 h -5.06217 -5.06216 v 6.77469 6.7747 l -6.01132,-0.57722 -6.01132,-0.57708 0.0305,19.81103 c 0.0343,22.2129 0.13559,22.46436 8.82824,21.90512 5.02941,-0.3236 5.06475,-0.29412 5.46386,4.56961 l 0.4017,4.89549 6.55877,-0.77096 c 3.60732,-0.42409 8.69438,-1.1233 11.30456,-1.55371 l 4.74578,-0.78261 v 7.05463 7.05463 l 12.97179,0.36068 12.97179,0.36068 0.38708,6.77558 0.38708,6.77545 12.44482,-0.89069 12.44481,-0.89068 1.50679,4.56556 c 1.96388,5.95057 4.36249,7.07729 15.06715,7.07729 4.87702,0 9.21926,0.56949 9.64945,1.26554 0.43018,0.69604 2.41864,1.26554 4.4188,1.26554 4.0107,0 5.84677,3.16081 4.42966,7.62577 -0.64842,2.04296 -0.0438,2.8319 2.97711,3.88508 2.08491,0.7268 4.11912,2.17711 4.52043,3.22295 0.58547,1.52561 2.10171,1.73 7.67168,1.03408 6.70073,-0.83716 6.9868,-0.74946 8.23058,2.52184 0.70871,1.86414 1.28857,4.74312 1.28857,6.39794 0,2.63486 0.66821,3.05704 5.37855,3.39785 5.36495,0.38814 5.38014,0.40358 6.01132,6.08409 0.6317,5.68532 0.64226,5.69595 6.27708,6.3277 6.39661,0.71706 7.29629,2.29 7.51772,13.14378 l 0.12617,6.18331 5.69494,-0.78058 5.69493,-0.78046 v 27.18483 27.18495 h -6.4109 c -9.51602,0 -11.30667,1.39615 -11.30667,8.81525 0,5.46106 -0.33741,6.24317 -2.84747,6.59955 -2.28725,0.32486 -2.92475,1.33818 -3.24025,5.15024 l -0.39278,4.74578 h -7.51685 -7.51685 v 7.59324 7.59325 h -6.88579 c -3.78718,0 -7.23774,0.56949 -7.66793,1.26554 -0.43018,0.69605 -2.42265,1.26554 -4.42768,1.26554 -3.29911,0 -3.68288,0.45104 -4.03833,4.74578 l -0.39277,4.74578 -49.84654,0.33119 -49.84653,0.33132 0.78261,-5.70987 0.78262,-5.70974 h -10.76421 c -10.39021,0 -10.80709,-0.11263 -11.99842,-3.24624 -0.67883,-1.78542 -1.23422,-4.61226 -1.23422,-6.28189 0,-2.97124 -0.26155,-3.04337 -12.32437,-3.39785 -11.20151,-0.32917 -12.36099,-0.59278 -12.72639,-2.89328 -0.22112,-1.3921 -1.0007,-4.07795 -1.7324,-5.96854 -1.31189,-3.38976 -1.50883,-3.44253 -14.16635,-3.79663 l -12.83598,-0.35916 -0.40096,-5.06216 c -0.22052,-2.78419 -0.92344,-5.5942 -1.56202,-6.24456 -0.63858,-0.65023 -5.29884,-1.22441 -10.35613,-1.27592 -10.75711,-0.1101 -12.35893,-0.85702 -12.35893,-5.7677 0,-2.00601 -0.71187,-4.10795 -1.58193,-4.67111 -0.87006,-0.56317 -9.83958,-1.30857 -19.93227,-1.65659 l -18.35034,-0.63277 -0.39657,-4.11301 c -0.36568,-3.79257 -0.76005,-4.12465 -5.06216,-4.26247 -16.67599,-0.53431 -80.38564,-0.68036 -85.27703,-0.19553 l -5.94452,0.58924 -0.38318,5.25642 -0.38319,5.25643 -12.97179,-0.46711 -12.97179,-0.46712 v 5.07748 c 0,6.34694 -1.35888,6.94023 -13.39684,5.84946 l -9.21023,-0.83463 -0.40272,4.91245 c -0.40149,4.89752 -0.42109,4.91372 -6.41404,5.29832 l -6.01132,0.38573 v 4.99282 4.99281 h -6.3277 -6.3277 v 6.84037 6.84038 l -5.37855,1.70202 -5.37855,1.70203 -0.37955,7.27686 -0.37954,7.27686 h -4.99901 -4.999 v 7.76953 7.76954 l -6.39665,-0.75768 c -5.84637,-0.69238 -6.33189,-0.55342 -5.64382,1.61445 0.41406,1.30464 0.38336,3.84421 -0.0682,5.64342 -0.7271,2.89708 -1.45727,3.27155 -6.37883,3.27155 h -5.55774 v 7.12715 7.12702 l -5.02827,-0.67441 c -5.44397,-0.73021 -5.44559,-0.72768 -6.65306,10.46552 -0.3074,2.84962 -0.97033,3.20081 -6.67373,3.53554 l -6.33243,0.37169 0.44854,5.63963 0.44853,5.63963 H 363.23092 350.2718 l 0.74942,6.32765 c 0.63881,5.3938 0.43133,6.338 -1.40565,6.3976 -1.18528,0.038 -8.77479,0.013 -16.86556,-0.063 -16.53795,-0.1495 -16.29525,-0.2923 -16.29525,9.5883 v 5.5915 H 256.97465 197.49423 Z M 181.53913,837.39385 c 0.42249,-1.10102 0.76818,-3.59729 0.76818,-5.54737 0,-3.89837 3.31928,-5.59192 8.4407,-4.30651 2.66985,0.67011 2.84258,0.27551 3.20201,-7.3147 0.36985,-7.81041 0.48057,-8.04112 4.17655,-8.70476 3.8696,-0.69466 4.04226,-1.24985 2.54777,-8.19274 -0.32651,-1.51687 -2.97453,-3.67639 -6.60846,-5.38943 -10.63446,-5.01293 -13.02412,-3.51327 -13.02412,8.17362 v 7.97291 h -4.42939 -4.42939 v 12.65541 12.65541 h 4.29399 c 2.74811,0 4.57054,-0.72073 5.06216,-2.00184 z m 36.20332,-70.82156 v -5.74973 l 4.74578,0.37118 4.74578,0.37119 0.37676,-7.90963 c 0.20723,-4.3503 0.9191,-7.90963 1.58193,-7.90963 0.66284,0 1.20516,-2.92492 1.20516,-6.49982 v -6.49969 l 5.69493,0.78058 5.69494,0.78059 v -6.30353 c 0,-4.75932 0.465,-6.30341 1.89831,-6.30341 1.50122,0 1.9247,-1.91932 2.02446,-9.17517 0.0953,-6.92833 0.3977,-8.40041 1.23504,-6.01132 0.77563,2.21292 0.89085,1.262 0.3834,-3.16385 -0.39903,-3.48024 -0.98842,-6.75483 -1.30974,-7.27686 -0.32133,-0.52204 -3.07879,-0.94916 -6.1277,-0.94916 h -5.54346 l 0.23961,5.37855 0.2396,5.37855 -6.01132,0.38574 -6.01131,0.38573 v 6.89113 c 0,6.04738 -0.3099,6.89112 -2.53109,6.89112 -1.95615,0 -2.53108,0.84361 -2.53108,3.71423 0,2.04284 -0.55541,5.17505 -1.23422,6.96048 -1.00519,2.64384 -2.06853,3.24624 -5.73018,3.24624 h -4.49596 l 0.84277,8.22601 0.84279,8.22602 h -5.8697 -5.8697 v 8.75526 c 0,4.81539 -0.34568,9.65608 -0.76817,10.7571 -0.66581,1.73506 0.7675,2.00183 10.7571,2.00183 h 11.52527 z m 36.70068,-63.69682 c 0,-2.0012 0.35594,-5.41816 0.79097,-7.59325 0.72517,-3.6259 0.51464,-3.95481 -2.53108,-3.95481 -3.21659,0 -3.32205,0.24096 -3.32205,7.59324 0,6.74951 0.28123,7.59325 2.53108,7.59325 1.94417,0 2.53108,-0.84374 2.53108,-3.63843 z m 57.8985,-227.15149 c -1.68245,-1.30352 -2.2147,-3.58327 -2.2147,-9.48602 0,-4.33637 0.55926,-7.7701 1.26554,-7.7701 0.69605,0 1.26554,-3.07129 1.26554,-6.82509 0,-7.52596 0.83226,-8.3614 8.32951,-8.3614 h 4.3259 l -0.11086,10.44071 c -0.061,5.74239 -0.48809,13.28818 -0.94916,16.76842 -0.81445,6.14779 -0.96421,6.33653 -5.26767,6.63853 -2.43617,0.17096 -5.42601,-0.46132 -6.64409,-1.40505 z"
       id="path1" />
  </g>
</svg>
